{"glyphs":{"0":{"ha":605,"x_min":44,"x_max":563,"o":"m 458 338 q 458 486 458 338 q 303 635 458 635 q 149 337 149 635 q 159 204 149 259 q 303 41 184 41 q 458 338 458 41 m 412 6 q 388 -6 412 6 q 303 -18 364 -18 q 193 6 242 -18 q 111 77 145 31 q 44 337 44 166 q 112 600 44 507 q 303 693 180 693 q 544 488 490 693 q 563 337 563 422 q 545 186 563 252 q 494 75 527 120 q 412 6 461 30 z "},"1":{"ha":466,"x_min":65,"x_max":388,"o":"m 65 641 q 249 693 215 693 q 289 677 283 693 l 289 120 q 296 61 289 78 q 346 57 313 57 l 388 57 l 388 -9 q 92 -9 285 6 l 92 57 l 135 57 q 184 61 167 57 q 191 118 191 89 l 191 591 q 146 605 174 605 l 118 604 l 74 595 l 65 641 z "},"2":{"ha":592,"x_min":50,"x_max":523,"o":"m 400 512 q 289 634 400 634 q 188 600 235 634 q 133 507 140 567 l 64 565 q 207 685 81 656 q 289 693 244 693 q 443 641 385 693 q 500 507 500 590 q 476 407 500 449 q 371 268 437 334 q 156 68 306 201 l 344 68 q 461 111 421 68 q 493 162 479 129 l 523 156 q 517 13 523 78 q 332 0 475 0 l 94 0 q 50 24 58 0 q 52 42 50 33 q 55 64 54 51 q 360 391 308 312 q 395 467 391 439 q 400 512 400 495 z "},"3":{"ha":568,"x_min":58,"x_max":513,"o":"m 418 184 q 213 319 418 319 l 194 319 l 194 376 l 225 376 q 342 415 286 376 q 397 514 397 454 q 362 604 397 575 q 289 634 327 634 q 225 626 251 634 q 145 564 176 612 q 125 513 130 541 l 60 565 q 129 658 71 625 q 269 692 187 692 q 471 604 420 692 q 489 533 489 570 q 445 420 489 465 q 320 356 401 374 q 513 180 513 333 q 374 -4 513 41 q 268 -18 332 -18 q 138 11 204 -18 q 58 78 72 40 q 74 187 69 166 l 126 177 q 169 72 126 103 q 259 41 211 41 q 379 82 340 41 q 418 184 418 123 z "},"4":{"ha":574,"x_min":17,"x_max":561,"o":"m 526 -9 q 408 0 468 0 q 234 -9 349 0 l 234 55 l 276 55 q 326 60 312 55 q 333 118 334 81 l 333 183 l 35 183 q 17 224 17 197 q 31 249 20 238 q 283 609 235 547 q 342 683 332 670 l 383 683 q 420 675 411 683 q 428 646 428 666 l 428 244 l 561 244 l 561 217 q 553 188 561 193 q 523 183 544 183 l 428 183 l 428 119 q 434 60 428 82 q 483 55 451 55 l 526 55 l 526 -9 m 333 244 l 333 567 l 116 258 l 108 244 l 333 244 z "},"5":{"ha":585,"x_min":82,"x_max":524,"o":"m 460 607 q 451 605 460 607 q 425 602 442 604 q 349 601 408 601 q 184 624 291 601 l 180 397 q 293 425 240 425 q 462 366 400 425 q 524 207 524 306 q 461 45 524 108 q 288 -18 398 -18 q 109 21 177 -18 q 82 41 92 31 l 82 190 l 140 184 l 162 69 q 269 41 218 41 q 390 89 354 41 q 427 209 427 137 q 383 320 427 281 q 261 361 337 361 q 136 319 186 361 l 103 329 l 103 662 q 153 683 118 683 l 349 683 q 488 693 441 683 l 490 625 q 460 607 478 609 z "},"6":{"ha":581,"x_min":60,"x_max":537,"o":"m 329 361 q 164 274 252 361 q 303 41 164 41 q 401 86 364 41 q 438 210 438 130 q 370 351 438 320 q 329 361 349 361 m 298 -18 q 60 313 60 -18 q 211 669 60 597 q 338 693 264 693 q 471 672 412 693 q 499 656 488 665 l 493 507 l 435 507 l 421 608 q 333 635 373 635 q 225 590 264 635 q 171 476 186 544 q 157 377 157 408 l 157 339 q 332 421 240 421 q 480 364 424 421 q 537 210 537 308 q 472 47 537 112 q 298 -18 407 -18 z "},"7":{"ha":568,"x_min":52,"x_max":524,"o":"m 510 683 q 524 609 524 641 l 298 89 q 254 14 274 34 q 201 -6 235 -6 q 157 11 166 -6 q 170 43 163 27 l 445 619 l 237 619 q 140 608 174 619 l 129 507 l 74 507 l 52 656 q 291 683 101 683 l 510 683 z "},"8":{"ha":556,"x_min":45,"x_max":513,"o":"m 489 539 q 489 506 489 539 q 458 434 489 473 q 368 351 428 395 q 500 237 463 313 q 513 167 513 210 q 493 88 513 125 q 272 -18 439 -18 q 110 28 174 -18 q 45 153 45 74 q 119 312 45 255 q 180 349 145 332 q 62 473 81 398 q 55 534 55 499 q 73 599 55 568 q 120 650 91 629 q 190 682 150 670 q 272 693 230 693 q 425 649 361 693 q 489 539 489 605 m 240 320 q 137 172 137 266 q 218 50 137 78 q 275 41 244 41 q 376 75 340 41 q 411 157 411 109 q 281 305 411 251 l 240 320 m 292 380 q 398 522 398 437 q 364 603 398 571 q 272 635 329 635 q 159 570 186 635 q 149 522 149 548 q 187 437 149 473 q 292 380 225 400 z "},"9":{"ha":580,"x_min":50,"x_max":522,"o":"m 149 471 q 259 319 149 319 q 369 362 323 319 q 418 448 415 405 q 334 624 418 585 q 281 635 309 635 q 184 590 218 635 q 149 471 149 546 m 283 693 q 522 376 522 693 q 374 7 522 81 q 246 -18 325 -18 q 111 11 167 -18 q 79 33 91 21 l 79 177 l 140 173 l 160 64 q 377 116 308 0 q 422 309 422 191 l 422 323 q 421 336 422 329 q 247 257 336 257 q 104 314 159 257 q 50 468 50 371 q 187 676 50 621 q 283 693 230 693 z "}," ":{"ha":251,"x_min":0,"x_max":0,"o":""},"!":{"ha":333,"x_min":101,"x_max":232,"o":"m 201 234 q 204 191 201 211 q 169 186 190 186 q 139 193 147 186 q 130 224 130 201 l 113 539 q 108 618 112 587 q 105 658 105 649 l 105 673 q 163 692 129 692 q 209 680 197 692 q 221 655 221 669 l 221 638 l 201 234 m 196 -6 q 190 -9 196 -6 q 167 -11 184 -11 q 137 -6 150 -11 q 116 9 125 0 q 101 52 101 26 q 117 100 101 79 q 158 120 133 120 q 201 113 183 120 q 225 86 218 106 q 232 54 232 65 q 229 30 232 43 q 217 9 225 18 q 196 -6 208 0 z "},"\"":{"ha":374,"x_min":55,"x_max":320,"o":"m 55 689 q 101 709 72 709 q 139 699 130 709 q 147 673 147 689 l 147 649 q 146 635 147 642 l 132 466 q 102 455 120 455 q 71 489 72 455 q 68 509 69 499 l 61 598 q 57 641 60 619 q 55 689 55 663 m 228 689 q 274 709 245 709 q 312 699 303 709 q 320 669 320 689 q 319 635 320 649 l 305 466 q 276 455 289 455 q 244 488 247 455 q 242 507 244 497 l 234 598 q 228 689 230 655 z "},"#":{"ha":588,"x_min":38,"x_max":550,"o":"m 169 34 l 126 34 q 105 48 105 34 q 108 72 105 57 q 115 113 111 88 l 136 211 l 38 211 l 38 237 q 54 275 38 269 q 74 276 60 276 l 149 276 l 174 402 l 74 402 l 74 437 q 82 463 74 458 q 111 468 91 468 l 188 468 l 225 641 l 251 641 q 292 628 286 641 q 286 591 289 611 l 259 468 l 384 468 l 421 641 l 461 641 q 485 636 478 641 l 485 626 l 482 601 q 475 564 479 587 l 454 468 l 550 468 l 550 442 q 544 410 550 418 q 514 402 539 402 l 442 402 l 414 276 l 514 276 l 514 242 q 493 211 514 214 l 401 211 l 366 34 l 339 34 q 299 51 306 34 q 305 78 300 62 q 312 113 309 94 l 332 211 l 205 211 l 169 34 m 220 276 l 344 276 l 371 402 l 245 402 l 220 276 z "},"$":{"ha":618,"x_min":65,"x_max":550,"o":"m 309 758 q 343 736 337 758 l 343 696 q 519 649 483 696 q 517 605 519 649 l 495 533 l 451 544 q 407 609 432 585 q 343 636 383 632 l 343 378 q 485 302 448 334 q 550 168 550 242 q 492 42 550 94 q 343 -16 435 -10 l 343 -113 l 312 -113 q 283 -106 289 -113 q 276 -75 276 -98 l 276 -17 q 77 47 154 -10 q 65 62 68 52 q 68 116 65 89 l 96 177 l 145 159 q 276 44 186 52 l 276 305 q 137 383 169 353 q 91 441 105 412 q 78 509 78 469 q 130 632 78 585 q 276 693 183 679 l 276 758 l 309 758 m 276 638 q 177 554 196 628 q 174 541 176 547 q 173 519 173 534 q 276 405 173 448 l 276 638 m 439 112 q 448 153 448 130 q 343 276 448 230 l 343 43 q 439 112 414 51 z "},"%":{"ha":779,"x_min":44,"x_max":736,"o":"m 210 -16 l 149 6 q 193 79 159 24 q 258 186 228 135 q 332 308 288 237 q 433 474 376 378 q 567 693 490 570 q 615 666 608 680 q 624 660 618 663 l 210 -16 m 193 653 q 118 513 118 653 q 136 408 118 441 q 193 376 154 376 q 249 408 231 376 q 266 514 266 441 q 249 620 266 587 q 193 653 231 653 m 252 349 q 196 336 227 336 q 86 381 129 336 q 44 514 44 427 q 135 680 44 645 q 193 692 162 692 q 299 647 257 692 q 342 494 342 602 q 252 349 342 385 m 587 27 q 663 167 663 27 q 587 306 663 306 q 531 273 548 306 q 513 166 513 240 q 587 27 513 27 m 646 0 q 633 -6 646 0 q 587 -11 619 -11 q 527 0 554 -11 q 479 33 499 11 q 449 89 459 55 q 438 166 438 122 q 449 243 438 210 q 478 299 459 276 q 526 333 497 322 q 587 344 554 344 q 648 333 619 344 q 695 299 676 322 q 725 243 714 276 q 736 166 736 210 q 725 89 736 122 q 694 33 714 55 q 646 0 673 11 z "},"&":{"ha":663,"x_min":34,"x_max":649,"o":"m 145 176 q 296 45 145 45 q 439 130 407 45 q 451 201 451 160 q 448 276 451 242 l 444 312 l 288 312 q 156 232 188 312 q 145 176 145 207 m 524 312 q 537 179 537 238 q 521 87 537 120 q 473 31 505 54 q 288 -18 405 -18 q 48 98 95 -18 q 34 170 34 133 q 74 284 34 235 q 183 346 113 333 l 183 349 q 65 445 92 370 q 55 505 55 471 q 112 628 55 581 q 286 675 169 675 q 479 626 402 675 l 468 493 l 408 493 q 366 587 383 568 q 293 621 334 621 q 225 611 251 621 q 184 584 200 601 q 153 497 153 550 q 191 410 153 445 q 296 374 230 374 l 649 374 l 649 242 l 619 242 q 595 298 608 283 q 557 312 582 312 l 524 312 z "},"'":{"ha":203,"x_min":55,"x_max":147,"o":"m 108 709 q 147 669 147 709 l 147 649 q 146 635 147 642 l 132 466 q 102 455 116 455 q 71 488 75 455 q 68 507 69 497 l 61 598 q 57 638 60 618 q 55 675 55 659 q 108 709 55 709 z "},"(":{"ha":278,"x_min":55,"x_max":248,"o":"m 55 319 q 130 638 55 483 q 201 737 176 727 q 215 740 210 740 q 227 737 221 740 l 248 727 q 145 319 145 558 q 248 -89 145 79 l 227 -99 q 210 -101 221 -101 q 184 -85 200 -101 q 65 207 94 33 q 55 319 55 262 z "},")":{"ha":278,"x_min":31,"x_max":224,"o":"m 133 319 q 31 727 133 561 l 51 737 q 69 740 57 740 q 95 723 82 740 q 215 431 186 605 q 224 319 224 376 q 189 96 224 201 q 95 -85 154 -9 q 69 -101 79 -101 q 51 -99 58 -101 l 31 -89 q 133 319 133 77 z "},"*":{"ha":439,"x_min":40,"x_max":394,"o":"m 133 353 l 187 472 l 60 408 l 40 482 l 176 513 l 58 594 l 120 646 l 204 541 l 218 683 l 303 660 l 247 534 l 376 594 l 394 522 l 261 495 l 376 400 l 312 350 l 230 466 l 217 319 l 133 353 z "},"+":{"ha":611,"x_min":64,"x_max":548,"o":"m 303 530 q 340 507 332 530 l 340 322 l 548 322 l 548 289 q 541 258 548 264 q 507 252 533 252 l 340 252 l 340 45 l 308 45 q 276 52 281 45 q 271 85 271 60 l 271 252 l 64 252 l 64 286 q 72 316 64 310 q 105 322 79 322 l 271 322 l 271 530 l 303 530 z "},",":{"ha":218,"x_min":28,"x_max":164,"o":"m 164 65 q 55 -150 164 -55 q 34 -142 40 -150 l 28 -128 q 74 1 68 -69 l 77 20 q 40 39 51 20 q 39 78 28 58 q 62 108 50 98 q 98 118 74 118 q 164 65 164 118 z "},"-":{"ha":323,"x_min":24,"x_max":299,"o":"m 299 285 q 276 247 299 254 l 24 247 l 24 279 q 33 304 24 299 q 64 309 43 309 l 299 309 l 299 285 z "},".":{"ha":283,"x_min":78,"x_max":207,"o":"m 207 57 q 173 -10 207 7 q 135 -16 160 -16 q 94 5 111 -16 q 78 50 78 26 q 113 111 78 94 q 150 116 126 116 q 190 96 173 116 q 207 57 207 77 z "},"/":{"ha":404,"x_min":-1,"x_max":405,"o":"m 366 720 q 405 707 397 720 q 402 700 404 704 q 396 685 401 696 q 379 643 391 673 q 300 456 367 612 q 183 184 232 299 q 72 -74 133 68 l 38 -74 q -1 -60 9 -74 l 332 720 l 366 720 z "},":":{"ha":288,"x_min":78,"x_max":210,"o":"m 78 52 q 78 66 78 52 q 97 98 78 81 q 145 116 116 116 q 191 95 173 116 q 210 44 210 74 q 190 -1 210 14 q 141 -16 170 -16 q 95 4 112 -16 q 78 52 78 23 m 210 445 q 145 370 210 370 q 95 389 112 370 q 78 437 78 408 q 97 484 78 466 q 144 502 116 502 q 191 485 171 502 q 210 445 210 468 z "},";":{"ha":224,"x_min":20,"x_max":170,"o":"m 112 370 q 38 437 38 370 q 88 499 38 488 q 113 502 95 502 q 151 485 132 502 q 170 437 170 468 q 152 388 170 405 q 112 370 135 370 m 98 118 q 164 61 164 118 q 99 -109 164 -24 q 54 -150 68 -150 q 20 -132 28 -150 q 77 20 72 -48 q 37 61 37 20 q 54 101 38 85 q 98 118 69 118 z "},"<":{"ha":658,"x_min":62,"x_max":595,"o":"m 64 261 l 62 278 l 62 283 q 78 306 62 299 q 288 402 179 353 q 432 468 397 451 q 490 495 466 485 q 529 511 514 505 q 551 521 543 517 q 563 526 560 524 q 570 529 567 527 q 585 501 581 517 q 595 468 590 485 l 164 269 l 594 74 q 585 39 588 55 q 570 11 581 23 q 64 242 531 27 l 64 261 z "},"=":{"ha":611,"x_min":64,"x_max":548,"o":"m 548 385 q 526 349 548 354 l 64 349 l 64 381 q 74 411 64 405 q 111 417 84 417 l 548 417 l 548 385 m 548 194 q 526 157 548 166 l 64 157 l 64 190 q 82 224 64 223 q 101 225 89 225 l 548 225 l 548 194 z "},">":{"ha":658,"x_min":64,"x_max":595,"o":"m 584 306 q 595 272 595 302 l 595 242 q 434 169 505 201 q 312 112 364 136 q 168 46 221 69 q 101 16 115 23 q 82 16 86 9 q 65 74 72 30 l 493 271 l 64 468 l 92 530 l 584 306 z "},"?":{"ha":466,"x_min":41,"x_max":418,"o":"m 205 113 q 275 71 257 113 q 279 37 279 58 q 261 -1 279 16 q 188 -14 228 -31 q 147 42 147 3 q 166 97 147 81 q 205 113 184 113 m 242 262 q 257 179 242 217 l 220 179 q 162 241 181 201 q 156 274 156 254 q 167 313 156 293 q 234 390 190 349 q 312 527 312 462 q 288 601 312 573 q 224 629 265 629 q 108 551 125 629 l 41 551 q 106 663 41 626 q 213 693 157 693 q 364 648 310 693 q 418 522 418 602 q 329 366 418 442 q 258 297 274 316 q 242 262 242 278 z "},"@":{"ha":882,"x_min":64,"x_max":832,"o":"m 595 215 q 646 153 595 153 q 736 218 696 153 q 775 354 775 283 q 692 566 775 486 q 474 646 609 646 q 244 551 339 646 q 149 303 149 456 q 243 57 149 149 q 472 -34 337 -34 q 720 34 607 -34 l 738 0 q 483 -81 614 -81 q 115 108 230 -81 q 64 299 64 193 q 183 583 64 471 q 466 696 302 696 q 731 604 631 696 q 832 364 832 512 q 777 186 832 266 q 636 106 721 106 q 544 156 574 106 q 530 187 533 170 l 527 187 q 397 106 482 106 q 281 187 312 106 q 271 258 271 213 q 288 353 271 303 q 334 439 305 402 q 503 520 404 520 q 587 468 563 520 l 607 499 l 656 499 l 601 262 q 595 215 595 240 m 563 431 q 502 478 553 478 q 405 407 452 478 q 359 262 359 337 q 431 157 359 157 q 553 366 520 157 q 563 431 557 398 z "},"A":{"ha":750,"x_min":0,"x_max":751,"o":"m 356 597 l 237 249 l 478 249 l 360 597 l 356 597 m 237 -7 q 123 0 203 0 q 0 -7 44 0 l 14 60 l 35 60 q 81 65 61 60 q 108 114 101 92 q 128 169 116 136 q 157 244 140 201 q 193 336 174 286 q 232 434 213 385 l 332 683 l 376 683 q 432 675 410 683 l 642 123 q 670 65 659 82 q 716 60 693 60 l 737 60 l 751 -7 q 665 0 711 0 l 598 0 q 495 -7 537 0 l 485 60 l 493 60 q 541 65 519 60 q 527 120 541 86 l 495 200 l 221 200 l 196 123 q 184 69 184 89 q 220 60 184 60 l 241 60 l 237 -7 z "},"B":{"ha":690,"x_min":37,"x_max":634,"o":"m 368 60 q 526 184 526 60 q 484 288 526 254 q 350 323 442 323 q 281 323 350 323 q 251 322 257 323 l 251 60 l 368 60 m 251 383 q 342 378 310 378 q 463 410 415 378 q 510 505 510 441 q 420 621 510 599 q 343 629 388 629 l 278 626 l 251 625 l 251 383 m 398 2 q 366 1 398 2 q 241 0 333 0 q 47 -7 149 0 l 47 60 l 88 60 q 137 65 118 60 q 145 120 146 84 l 145 547 q 137 616 145 591 q 99 619 120 619 l 37 616 l 37 670 q 366 689 179 689 q 615 507 615 689 q 576 408 615 452 q 473 356 537 364 q 632 187 634 334 q 527 28 632 67 q 398 2 463 4 z "},"C":{"ha":651,"x_min":55,"x_max":621,"o":"m 374 693 q 609 643 520 693 l 597 510 l 540 510 q 493 599 516 578 q 449 628 471 621 q 381 635 427 635 q 293 612 336 635 q 170 346 170 547 q 300 65 170 120 q 395 47 343 47 q 614 105 483 47 l 621 38 q 382 -18 526 -18 q 147 70 238 -18 q 55 326 55 159 q 252 669 55 591 q 374 693 316 693 z "},"D":{"ha":767,"x_min":37,"x_max":713,"o":"m 37 673 q 288 689 156 689 q 463 682 420 689 q 546 660 507 676 q 713 337 713 588 q 564 47 713 116 q 334 3 482 9 q 202 0 268 0 q 44 -7 136 0 l 44 61 q 135 65 119 61 q 142 122 142 86 l 142 544 q 135 611 142 575 q 86 616 119 616 l 37 616 l 37 673 m 357 624 l 244 622 l 244 60 q 259 58 252 58 l 298 58 q 563 164 500 58 q 598 324 598 227 q 584 475 598 421 q 540 561 570 529 q 357 624 485 624 z "},"E":{"ha":642,"x_min":37,"x_max":604,"o":"m 37 668 q 281 683 120 683 l 571 683 l 584 621 q 591 585 585 609 q 597 543 597 561 l 527 541 l 524 564 q 513 608 522 584 q 391 622 485 622 l 349 621 l 244 619 l 244 378 l 405 378 q 452 402 439 378 q 463 431 458 411 l 488 431 q 482 264 488 340 l 452 264 q 411 320 437 312 q 390 323 402 323 l 244 323 l 244 60 l 462 60 q 530 77 516 60 q 544 154 539 101 q 604 154 574 154 l 604 99 q 602 52 604 77 q 598 10 599 27 q 501 -6 550 -4 q 412 -7 452 -7 l 193 0 q 43 -7 91 0 l 43 60 l 85 60 q 133 65 113 60 q 140 120 142 84 l 140 557 q 133 612 140 595 q 113 616 125 616 l 37 616 l 37 668 z "},"F":{"ha":635,"x_min":37,"x_max":594,"o":"m 354 621 l 248 619 l 248 381 l 388 381 q 446 431 434 381 l 471 431 q 465 264 471 340 l 435 264 q 412 309 424 299 q 374 319 401 319 l 248 319 l 248 123 q 255 65 248 94 q 305 60 278 60 l 347 60 l 347 -7 l 197 0 l 57 -6 l 47 -7 l 47 60 l 88 60 q 137 65 118 60 q 145 115 145 84 l 145 560 q 137 612 145 594 q 116 616 128 616 l 37 616 l 37 668 q 366 683 164 683 l 575 683 q 584 624 581 649 q 590 578 587 598 q 594 543 594 557 l 524 541 q 512 608 524 570 q 395 622 486 622 l 354 621 z "},"G":{"ha":660,"x_min":55,"x_max":643,"o":"m 641 48 q 400 -18 544 -18 q 82 173 162 -18 q 55 327 55 237 q 154 599 55 506 q 425 693 254 693 q 629 643 540 693 l 616 510 l 558 510 q 512 599 534 578 q 414 635 475 635 q 230 556 291 635 q 170 340 170 476 q 230 125 170 204 q 401 45 291 45 q 541 72 488 45 l 541 183 q 534 244 541 225 q 485 249 519 249 l 428 249 l 428 302 q 468 305 437 302 q 551 309 500 309 l 643 309 q 642 271 642 286 l 641 227 l 641 48 z "},"H":{"ha":804,"x_min":37,"x_max":768,"o":"m 765 -7 q 618 0 717 0 q 465 -7 519 0 l 465 60 l 507 60 q 557 65 537 60 q 564 120 565 84 l 564 320 l 240 320 l 240 123 q 247 65 240 94 q 296 60 269 60 l 339 60 l 339 -7 q 190 0 291 0 q 38 -7 89 0 l 38 60 l 81 60 q 129 65 109 60 q 137 120 137 86 l 137 561 q 129 618 137 595 q 79 624 113 624 l 37 624 l 37 675 q 198 683 102 683 q 340 675 293 683 l 340 624 l 296 624 q 247 618 269 624 q 240 561 240 590 l 240 385 l 564 385 l 564 561 q 557 618 564 599 q 507 624 541 624 l 465 624 l 465 675 q 627 683 530 683 q 768 675 724 683 l 768 624 l 724 624 q 675 618 697 624 q 668 561 668 590 l 668 123 q 675 65 668 94 q 723 60 697 60 l 765 60 l 765 -7 z "},"I":{"ha":374,"x_min":37,"x_max":339,"o":"m 339 -7 q 192 0 293 0 q 38 -7 91 0 l 38 60 l 79 60 q 129 65 106 60 q 136 120 137 86 l 136 564 q 129 618 136 599 q 79 624 113 624 l 37 624 l 37 675 q 199 683 102 683 q 339 675 296 683 l 339 624 l 296 624 q 247 618 266 624 q 240 564 240 590 l 240 123 q 247 65 240 94 q 296 60 269 60 l 339 60 l 339 -7 z "},"J":{"ha":485,"x_min":21,"x_max":458,"o":"m 156 675 q 317 683 221 683 q 458 675 414 683 l 458 624 l 415 624 q 366 618 385 624 q 359 561 357 598 l 359 150 q 259 -69 359 -20 q 196 -85 228 -85 q 105 -75 163 -85 q 21 -51 47 -65 q 23 -40 21 -50 l 24 -13 q 27 33 26 6 q 31 101 28 61 l 99 99 q 119 -17 102 54 q 140 -21 129 -18 q 176 -24 152 -24 q 240 22 224 -24 q 255 167 255 68 l 255 561 q 247 618 255 599 q 198 624 234 624 l 156 624 l 156 675 z "},"K":{"ha":694,"x_min":37,"x_max":697,"o":"m 37 675 q 199 683 102 683 q 339 675 296 683 l 339 624 l 296 624 q 247 618 266 624 q 240 561 240 590 l 240 120 q 247 65 240 85 q 296 60 269 60 l 339 60 l 339 -7 q 187 0 275 0 q 38 -7 86 0 l 38 60 l 81 60 q 129 65 109 60 q 136 115 136 84 l 136 561 q 129 618 136 599 q 79 624 113 624 l 37 624 l 37 675 m 425 675 q 580 683 496 683 q 697 675 665 683 l 694 624 l 656 624 q 612 618 635 624 q 500 505 574 587 q 401 397 425 422 q 363 356 377 371 l 550 120 q 602 65 571 94 q 649 60 625 60 l 686 60 l 693 -7 q 542 0 636 0 q 400 -7 448 0 l 400 60 l 408 60 q 455 65 441 60 q 420 120 449 81 l 272 317 q 265 327 268 322 q 254 344 262 332 q 278 374 261 354 q 311 412 296 394 q 366 473 326 429 q 439 553 405 516 q 486 609 486 599 l 486 618 q 446 624 475 624 l 420 624 l 425 675 z "},"L":{"ha":631,"x_min":37,"x_max":591,"o":"m 414 -7 l 187 0 q 38 -7 86 0 l 38 60 l 79 60 q 129 65 106 60 q 136 120 137 86 l 136 561 q 129 618 136 599 q 79 624 113 624 l 37 624 l 37 675 q 199 683 102 683 q 340 675 296 683 l 340 624 l 296 624 q 247 618 269 624 q 240 561 240 590 l 240 60 l 421 60 q 497 71 476 60 q 550 154 533 89 l 591 150 l 574 0 q 414 -7 471 -7 z "},"M":{"ha":1045,"x_min":37,"x_max":1009,"o":"m 1009 -7 q 861 0 959 0 q 713 -7 762 0 l 707 60 l 745 60 q 787 67 779 60 q 795 91 795 74 q 794 138 795 109 q 791 203 794 167 q 783 310 788 240 q 764 567 778 380 q 558 0 577 44 l 469 0 q 402 191 441 75 q 338 379 363 306 q 276 563 313 452 q 247 97 247 116 q 257 69 247 78 q 296 60 266 60 l 333 60 l 329 -7 q 183 0 279 0 q 37 -7 86 0 l 48 60 l 95 60 q 145 65 122 60 q 166 124 163 102 q 173 184 169 146 q 181 264 177 221 q 187 350 184 306 q 193 433 190 394 q 198 503 197 472 q 202 552 200 534 q 204 581 204 570 q 202 600 204 592 q 198 615 200 608 q 147 624 179 624 l 98 624 l 98 675 q 135 680 112 676 q 218 683 159 683 q 332 675 276 683 q 434 388 380 558 q 508 164 489 218 q 527 106 527 111 q 653 472 592 308 q 726 675 713 636 q 832 683 785 683 l 947 676 l 951 675 l 955 624 l 914 624 q 865 614 877 624 q 862 591 863 605 l 899 120 q 911 65 900 94 q 974 60 940 60 l 999 60 l 1009 -7 z "},"N":{"ha":789,"x_min":37,"x_max":762,"o":"m 323 -7 q 189 0 281 0 q 48 -7 98 0 l 48 60 l 91 60 q 139 65 119 60 q 147 120 147 84 l 146 561 q 139 618 146 599 q 89 624 123 624 l 37 624 l 37 675 q 184 683 147 683 q 252 676 221 683 q 597 126 475 332 l 590 507 l 590 561 q 582 618 590 599 q 533 624 560 624 l 485 624 l 485 675 q 637 683 547 683 q 762 675 727 683 l 762 624 l 726 624 q 676 618 696 624 q 669 548 669 599 q 668 423 669 496 q 665 275 666 350 q 660 128 663 200 q 656 -7 658 55 l 607 -7 q 564 3 584 -7 l 218 551 q 224 281 224 444 q 226 97 224 118 q 232 65 228 77 q 281 60 255 60 l 323 60 l 323 -7 z "},"O":{"ha":743,"x_min":54,"x_max":689,"o":"m 169 337 q 371 41 169 41 q 574 339 574 41 q 522 561 574 486 q 371 635 468 635 q 183 468 225 635 q 169 337 169 412 m 603 599 q 646 552 603 599 q 689 339 689 505 q 604 78 689 174 q 372 -18 519 -18 q 140 78 225 -18 q 54 339 54 174 q 140 599 54 505 q 371 693 225 693 q 603 599 517 693 z "},"P":{"ha":638,"x_min":37,"x_max":601,"o":"m 249 624 l 249 336 q 327 336 249 336 q 495 480 495 336 q 402 615 495 592 q 330 624 371 624 l 249 624 m 347 -7 q 200 0 300 0 q 47 -7 99 0 l 47 60 l 89 60 q 137 65 118 60 q 146 120 146 84 l 145 564 q 137 619 145 602 q 89 624 112 624 l 37 624 l 37 675 q 256 687 133 687 q 434 677 378 687 q 601 480 601 649 q 326 276 601 276 q 249 279 295 276 l 249 123 q 257 65 249 84 q 305 60 279 60 l 347 60 l 347 -7 z "},"Q":{"ha":767,"x_min":54,"x_max":711,"o":"m 711 -55 q 536 -98 609 -98 q 330 -14 418 -98 q 74 197 130 7 q 54 343 54 261 q 139 599 54 506 q 365 693 224 693 q 595 599 506 693 q 683 343 683 506 q 590 78 683 180 q 458 0 537 21 q 587 -31 493 -31 q 699 -6 612 -31 l 711 -55 m 370 40 q 558 204 517 40 q 573 337 573 261 q 519 558 573 482 q 370 635 466 635 q 221 561 275 635 q 167 337 167 488 q 370 40 167 40 z "},"R":{"ha":683,"x_min":37,"x_max":685,"o":"m 334 346 q 502 486 502 346 q 461 593 502 563 q 323 624 420 624 l 249 624 l 249 346 q 334 346 292 346 m 347 -7 q 200 0 300 0 q 47 -7 99 0 l 47 60 l 89 60 q 137 65 118 60 q 146 120 146 84 l 145 567 q 137 619 145 601 q 94 624 123 624 l 37 624 l 37 675 q 74 679 52 676 q 120 682 95 682 q 171 685 145 683 q 232 686 197 686 l 326 686 q 536 641 463 686 q 608 490 608 597 q 472 306 608 354 q 591 96 493 186 q 659 60 631 60 l 685 60 l 685 -7 l 614 -7 q 479 48 536 -7 q 411 170 439 89 q 392 235 398 204 q 380 289 385 265 q 315 289 347 289 q 249 291 282 289 l 249 123 q 257 65 249 84 q 305 60 279 60 l 347 60 l 347 -7 z "},"S":{"ha":581,"x_min":47,"x_max":531,"o":"m 173 570 q 163 527 163 550 q 196 454 163 483 q 286 405 230 425 q 469 311 407 360 q 531 184 531 262 q 385 -6 531 41 q 300 -18 342 -18 q 47 62 139 -18 l 68 190 l 140 187 q 160 78 140 112 q 289 40 198 40 q 386 72 346 40 q 427 154 427 105 q 315 286 427 231 q 238 319 279 303 q 164 353 197 334 q 60 510 60 411 q 207 679 60 636 q 317 693 257 693 q 433 680 377 693 q 502 646 489 668 q 502 635 502 642 l 499 616 q 486 512 493 561 l 425 517 q 399 609 425 584 q 299 635 373 635 q 173 570 203 635 z "},"T":{"ha":658,"x_min":20,"x_max":641,"o":"m 641 675 l 635 507 l 575 507 q 560 624 575 587 l 385 624 l 385 123 q 391 65 385 88 q 442 60 414 60 l 485 60 l 485 -7 q 337 0 439 0 q 183 -7 235 0 l 183 60 l 225 60 q 274 65 254 60 q 281 115 281 84 l 281 624 l 106 624 q 91 507 91 595 l 26 507 l 20 675 q 132 683 37 683 l 232 680 l 278 680 l 339 679 l 408 680 q 448 680 428 680 l 527 683 q 641 675 624 683 z "},"U":{"ha":761,"x_min":14,"x_max":748,"o":"m 468 676 q 613 683 520 683 q 748 675 706 683 l 748 624 l 704 624 q 655 618 675 624 q 648 561 648 599 l 648 245 q 573 51 648 120 q 377 -18 499 -18 q 113 278 113 -18 l 113 561 q 106 618 113 599 q 58 624 91 624 l 14 624 l 14 676 q 171 683 68 683 q 317 675 275 683 l 317 624 l 274 624 q 224 618 247 624 q 218 561 217 598 l 218 238 q 320 54 218 92 q 391 41 351 41 q 524 98 482 41 q 567 274 567 154 l 567 561 q 560 618 567 599 q 510 624 544 624 l 468 624 l 468 676 z "},"V":{"ha":774,"x_min":0,"x_max":775,"o":"m 269 624 q 223 618 242 624 q 241 561 223 604 l 418 102 l 422 102 l 587 561 q 599 618 599 594 q 553 624 587 624 l 519 624 l 522 675 q 660 683 578 683 q 775 675 741 683 l 764 624 l 740 624 q 689 618 711 624 q 663 561 672 591 q 584 345 638 493 q 448 0 530 197 l 398 0 q 344 21 354 0 l 129 561 q 98 618 118 587 q 47 624 82 624 l 11 624 l 0 675 q 154 683 57 683 q 298 675 251 683 l 303 624 l 269 624 z "},"W":{"ha":1139,"x_min":9,"x_max":1132,"o":"m 9 675 q 162 683 65 683 q 306 675 259 683 l 312 624 l 278 624 q 231 618 251 624 q 237 594 232 607 q 249 561 242 581 l 398 102 l 402 102 q 416 141 410 120 q 430 186 422 162 q 448 241 438 210 q 469 313 458 272 q 495 405 480 353 q 524 512 509 458 q 547 662 539 565 l 605 662 q 638 646 629 662 q 643 636 641 642 l 816 99 l 821 99 q 857 219 840 166 q 886 315 873 272 q 908 393 899 359 q 940 503 918 428 q 962 594 962 578 l 962 612 q 961 618 962 615 q 914 624 948 624 l 882 624 l 879 675 q 1016 683 935 683 q 1132 675 1097 683 l 1125 624 l 1101 624 q 1050 618 1076 624 q 1025 544 1037 591 q 848 0 950 259 l 768 0 q 747 6 750 0 q 735 33 737 23 q 730 47 733 44 l 590 478 q 431 0 520 220 l 354 0 q 320 21 327 0 l 137 561 q 122 593 130 580 q 106 618 113 607 q 55 624 91 624 l 20 624 l 9 675 z "},"X":{"ha":765,"x_min":9,"x_max":744,"o":"m 622 0 l 546 0 q 438 -7 486 0 l 438 60 l 462 60 q 507 65 488 60 q 473 123 490 101 l 364 279 l 251 123 q 220 65 232 99 q 265 60 237 60 l 289 60 l 289 -7 q 181 0 241 0 l 106 0 q 9 -7 51 0 l 9 60 l 50 60 q 96 65 74 60 q 119 91 108 77 q 146 120 130 105 l 325 334 l 166 561 q 145 592 153 580 q 125 618 136 607 q 72 624 109 624 l 37 624 l 30 675 q 176 683 81 683 q 323 675 272 683 l 329 624 l 300 624 q 255 618 272 624 q 262 599 258 605 q 271 587 266 594 l 393 408 l 512 561 q 548 618 541 601 q 503 624 537 624 l 485 624 l 490 675 q 638 683 558 683 q 744 675 717 683 l 740 624 l 700 624 q 646 618 675 624 q 548 500 632 604 q 428 357 463 397 l 601 120 q 649 65 631 81 q 696 60 672 60 l 719 60 l 719 -7 q 680 -3 700 -6 q 622 0 659 0 z "},"Y":{"ha":753,"x_min":-6,"x_max":757,"o":"m 268 624 q 221 618 238 624 q 228 594 221 607 q 240 573 235 581 l 393 312 q 447 412 427 374 q 480 474 468 451 q 518 544 493 497 q 547 618 543 591 q 502 624 536 624 l 468 624 l 479 675 q 631 683 541 683 q 757 675 720 683 l 738 624 l 697 624 q 646 618 672 624 q 635 602 641 609 q 626 590 629 595 q 614 568 624 584 q 591 527 605 551 q 559 473 577 503 q 509 390 541 442 q 422 245 478 337 l 422 123 q 431 65 422 88 q 478 60 454 60 l 522 60 l 522 -7 q 376 0 476 0 q 221 -7 275 0 l 221 60 l 264 60 q 312 65 289 60 q 322 120 319 84 l 322 232 l 128 561 q 110 593 116 580 q 95 618 103 607 q 45 624 79 624 l 9 624 l -6 675 q 149 683 54 683 q 293 675 244 683 l 302 624 l 268 624 z "},"Z":{"ha":582,"x_min":34,"x_max":543,"o":"m 123 587 l 125 534 q 74 534 99 534 q 70 557 74 537 q 64 592 67 577 q 60 621 62 607 q 56 648 58 636 q 54 666 54 659 q 299 683 115 683 l 522 683 q 541 646 541 670 l 541 621 l 145 60 l 387 60 q 438 77 424 60 q 466 187 466 111 l 543 187 l 543 41 q 540 14 543 28 q 422 0 540 0 l 51 0 q 34 38 34 13 l 34 64 l 422 624 l 291 624 q 261 622 279 624 q 215 619 244 621 q 155 609 187 618 q 123 587 123 601 z "},"[":{"ha":308,"x_min":98,"x_max":272,"o":"m 272 -60 l 272 -77 q 247 -108 272 -106 q 230 -109 240 -109 l 98 -109 l 98 743 l 225 743 q 268 731 264 743 q 272 709 272 720 l 272 693 l 173 693 l 173 -60 l 272 -60 z "},"\\":{"ha":422,"x_min":0,"x_max":422,"o":"m 422 -31 l 371 -31 q 336 -18 349 -31 l 0 707 l 48 707 q 92 685 75 707 l 422 -31 z "},"]":{"ha":308,"x_min":35,"x_max":211,"o":"m 92 -109 q 35 -77 35 -109 l 35 -60 l 135 -60 l 135 693 l 35 693 l 35 709 q 58 743 35 737 l 211 743 l 211 -109 l 92 -109 z "},"^":{"ha":564,"x_min":50,"x_max":514,"o":"m 503 240 q 514 204 514 217 q 507 180 514 191 l 459 171 l 283 476 l 111 173 l 78 180 q 50 197 61 183 q 68 240 61 227 l 257 574 l 288 574 q 322 557 310 574 l 503 240 z "},"_":{"ha":456,"x_min":-6,"x_max":463,"o":"m 463 -128 q 442 -160 463 -154 l -6 -160 l -6 -132 q 24 -101 -6 -101 l 463 -101 l 463 -128 z "},"`":{"ha":580,"x_min":187,"x_max":395,"o":"m 187 753 l 306 753 l 395 601 l 329 601 l 187 753 z "},"a":{"ha":591,"x_min":48,"x_max":550,"o":"m 150 133 q 245 48 150 48 q 359 98 292 48 q 366 232 366 162 l 291 232 q 186 207 223 232 q 150 133 150 181 m 466 128 q 475 48 466 77 l 550 48 l 550 9 q 395 -6 496 -10 q 364 13 370 -3 q 357 45 357 28 l 356 54 q 203 -11 283 -11 q 60 68 94 -11 q 48 129 48 94 q 296 286 48 286 l 366 286 l 366 319 q 350 414 366 390 q 317 446 334 438 q 259 454 299 454 q 128 359 186 454 l 61 400 q 125 472 67 439 q 269 505 184 505 q 466 323 466 505 l 466 128 z "},"b":{"ha":634,"x_min":18,"x_max":581,"o":"m 475 258 q 356 449 475 449 q 220 391 283 448 q 210 226 210 329 q 217 48 210 123 q 327 41 288 41 q 438 98 401 41 q 475 258 475 156 m 103 0 l 82 0 q 67 -1 74 0 q 57 -1 60 -1 l 62 50 q 105 88 101 64 q 108 112 108 98 l 108 656 q 105 685 108 670 q 64 690 88 690 l 18 690 l 18 733 q 131 745 69 745 q 205 743 193 745 q 208 720 207 731 q 210 696 210 709 l 210 434 q 374 505 278 505 q 526 441 471 505 q 581 258 581 377 q 519 67 581 139 q 366 -6 456 -6 l 103 0 z "},"c":{"ha":512,"x_min":54,"x_max":475,"o":"m 431 363 q 314 449 388 449 q 198 398 240 449 q 157 276 157 346 q 203 103 157 159 q 326 48 248 48 q 469 88 404 48 l 475 26 q 303 -11 412 -11 q 123 55 193 -11 q 54 240 54 122 q 213 486 54 425 q 299 505 259 505 q 475 458 422 505 l 466 363 l 431 363 z "},"d":{"ha":635,"x_min":54,"x_max":619,"o":"m 299 449 q 163 249 163 449 q 296 48 163 48 q 408 116 368 48 q 428 164 421 137 q 422 398 428 325 q 299 449 371 449 m 336 733 q 451 745 390 745 q 524 743 513 745 q 529 706 529 717 l 529 128 q 537 48 529 77 l 619 48 l 619 7 q 512 -6 565 -6 q 444 1 458 -6 q 431 40 431 9 l 431 62 q 273 -11 373 -11 q 113 54 173 -11 q 54 242 54 119 q 111 437 54 366 q 264 507 167 507 q 428 445 360 507 l 428 643 q 424 685 428 669 q 383 690 407 690 l 336 690 l 336 733 z "},"e":{"ha":556,"x_min":54,"x_max":507,"o":"m 404 286 q 405 289 405 288 l 405 295 q 343 438 405 402 q 289 451 320 451 q 156 286 164 451 l 404 286 m 157 231 q 327 48 169 48 q 455 98 405 48 l 497 79 q 306 -11 446 -11 q 123 55 191 -11 q 54 247 54 122 q 201 486 54 428 q 298 505 247 505 q 450 452 393 505 q 507 321 507 400 q 468 234 507 242 q 435 231 454 231 l 157 231 z "},"f":{"ha":373,"x_min":26,"x_max":442,"o":"m 316 -6 q 186 0 240 0 q 64 -6 132 0 l 65 34 q 121 49 112 40 q 132 68 130 58 q 133 95 133 78 l 133 432 l 26 432 l 26 468 q 78 490 40 490 l 133 490 l 133 534 q 186 692 133 641 q 336 743 238 743 q 442 719 394 743 l 442 611 l 395 611 q 319 689 374 689 q 254 660 274 689 q 235 556 235 632 l 235 490 l 370 490 l 370 465 q 347 432 370 438 l 235 432 l 235 113 q 236 79 235 92 q 247 52 237 65 q 312 34 258 40 l 316 -6 z "},"g":{"ha":522,"x_min":21,"x_max":510,"o":"m 109 31 q 71 96 71 37 q 86 150 71 123 q 130 186 101 177 l 130 187 q 52 332 52 232 q 170 492 52 451 q 252 505 207 505 q 356 483 296 505 l 476 499 q 506 489 502 499 q 510 445 510 479 l 510 435 l 405 435 q 445 339 445 387 q 391 200 445 249 q 225 150 337 150 q 160 157 217 150 q 154 145 156 152 q 151 132 153 139 q 149 112 149 125 q 166 92 149 99 q 238 85 183 85 q 418 57 363 85 q 488 -65 488 23 q 238 -213 488 -213 q 34 -126 77 -213 q 21 -72 21 -101 q 109 28 21 1 l 109 31 m 398 -69 q 398 -47 398 -69 q 370 -4 398 -26 q 264 18 342 18 q 157 16 186 18 q 111 -75 111 -41 q 130 -125 111 -109 q 234 -157 171 -157 q 368 -135 337 -157 q 398 -69 398 -112 m 354 326 q 249 449 354 449 q 167 419 193 449 q 142 342 142 388 q 150 274 142 295 q 173 238 157 252 q 248 213 201 213 q 325 240 295 213 q 354 326 354 266 z "},"h":{"ha":645,"x_min":18,"x_max":619,"o":"m 539 128 q 547 48 539 91 l 619 48 l 619 6 q 529 -6 574 -6 q 466 -3 483 -6 q 435 34 435 1 l 438 133 l 438 306 q 393 445 438 429 q 341 449 377 449 q 259 418 305 449 q 210 354 213 387 l 210 108 q 219 53 210 67 q 266 34 228 40 l 271 -6 q 154 0 203 0 q 48 -6 105 0 l 50 34 q 98 49 89 40 q 107 69 106 58 q 108 95 108 79 l 108 663 q 105 685 108 675 q 65 690 88 690 l 18 690 l 18 733 q 127 745 69 745 q 192 744 184 745 q 205 737 200 743 q 210 700 210 731 l 210 435 q 391 505 282 505 q 504 468 469 505 q 539 353 539 431 l 539 128 z "},"i":{"ha":303,"x_min":18,"x_max":292,"o":"m 99 641 q 94 676 94 653 q 112 716 94 699 q 159 734 130 734 q 206 715 188 734 q 224 668 224 696 q 205 621 224 639 q 159 602 187 602 q 99 641 115 602 m 210 128 q 218 48 210 91 l 286 48 l 292 6 q 174 -6 241 -6 q 106 34 106 -6 l 109 133 l 109 400 q 106 438 109 421 q 65 445 89 445 l 18 445 l 18 490 q 118 499 52 499 q 210 490 184 499 l 210 128 z "},"j":{"ha":383,"x_min":0,"x_max":296,"o":"m 89 490 q 189 499 123 499 q 281 490 255 499 l 281 41 q 240 -123 281 -68 q 133 -177 200 -177 q 0 -157 65 -177 l 21 -27 q 44 -31 33 -28 q 72 -34 55 -34 q 75 -79 72 -58 q 79 -113 78 -99 q 101 -118 89 -115 q 130 -120 113 -120 q 170 -77 160 -120 q 180 50 180 -33 l 180 400 q 177 438 180 421 q 136 445 160 445 l 89 445 l 89 490 m 166 675 q 166 685 166 675 q 184 715 166 696 q 230 734 201 734 q 292 694 275 734 q 296 660 296 683 q 276 620 296 638 q 230 602 257 602 q 170 641 187 602 q 166 675 166 653 z "},"k":{"ha":590,"x_min":18,"x_max":592,"o":"m 269 -6 q 156 0 204 0 q 48 -6 108 0 l 50 34 q 98 49 89 40 q 107 69 106 58 q 108 95 108 79 l 108 660 q 105 683 108 672 q 64 690 84 690 l 18 690 l 18 731 q 187 745 82 745 q 206 721 203 734 q 210 692 210 709 l 210 248 l 336 368 q 390 435 390 420 q 371 445 388 444 l 371 490 l 577 490 l 577 445 l 560 445 q 539 442 550 445 l 510 432 q 480 414 495 428 l 317 269 l 493 68 q 536 45 510 51 q 571 38 561 38 q 585 40 581 38 l 592 -7 q 475 0 522 0 q 356 -6 418 0 l 356 35 q 378 44 378 35 q 349 85 366 64 l 235 224 l 210 205 l 210 108 q 218 55 210 68 q 266 34 227 43 l 269 -6 z "},"l":{"ha":302,"x_min":13,"x_max":289,"o":"m 101 34 l 105 133 l 105 636 q 99 685 105 662 q 58 690 82 690 l 13 690 l 13 733 q 128 745 61 745 q 204 733 194 745 l 204 128 q 213 48 204 91 l 289 48 l 289 6 q 193 -6 238 -6 q 132 -3 149 -6 q 101 34 101 1 z "},"m":{"ha":951,"x_min":27,"x_max":925,"o":"m 740 34 l 743 133 l 741 313 q 729 411 741 390 q 703 439 717 432 q 665 445 689 445 q 550 384 599 445 q 530 354 536 368 l 530 112 q 539 56 530 69 q 592 34 548 43 l 597 -6 q 478 0 540 0 q 368 -6 417 0 l 370 34 q 419 49 410 40 q 429 67 428 58 q 429 94 429 77 l 429 313 q 417 412 429 393 q 354 445 398 445 q 270 415 310 445 q 220 354 230 385 l 220 112 q 228 55 220 68 q 276 34 237 41 l 279 -6 q 164 0 225 0 q 57 -6 102 0 l 58 34 q 109 52 101 40 q 118 99 118 64 l 118 398 q 113 438 118 422 q 74 445 96 445 l 27 445 l 27 490 q 126 499 61 499 q 217 490 191 499 l 217 429 q 398 505 300 505 q 523 420 496 505 q 584 473 557 458 q 709 505 642 505 q 845 356 845 505 l 845 128 q 852 48 845 84 l 921 48 l 925 6 q 831 -6 874 -6 q 771 -3 788 -6 q 740 34 740 1 z "},"n":{"ha":655,"x_min":27,"x_max":629,"o":"m 446 309 q 363 445 446 445 q 286 421 327 445 q 220 364 245 397 l 220 112 q 228 55 220 68 q 276 34 237 41 l 279 -6 q 164 0 225 0 q 57 -6 102 0 l 58 34 q 109 51 101 40 q 118 98 118 62 l 118 401 q 113 438 118 425 q 81 445 102 445 l 27 445 l 27 490 q 126 499 61 499 q 217 490 191 499 l 217 431 q 400 505 291 505 q 505 467 463 505 q 547 353 547 429 l 547 128 q 556 48 547 91 l 624 48 l 629 6 q 536 -6 581 -6 q 482 -4 492 -6 q 444 34 444 1 l 446 137 l 446 309 z "},"o":{"ha":608,"x_min":54,"x_max":557,"o":"m 557 244 q 557 185 557 244 q 485 57 557 126 q 305 -11 414 -11 q 125 57 196 -11 q 54 245 54 125 q 125 435 54 366 q 306 505 197 505 q 486 434 415 505 q 557 244 557 363 m 448 247 q 305 449 448 449 q 170 334 194 449 q 163 247 163 296 q 197 91 163 142 q 307 41 231 41 q 415 93 383 41 q 448 247 448 145 z "},"p":{"ha":628,"x_min":13,"x_max":577,"o":"m 359 449 q 210 381 278 449 l 205 139 q 334 48 251 48 q 469 249 469 48 q 359 449 469 449 m 13 490 q 111 499 47 499 q 204 490 176 499 l 204 435 q 369 505 271 505 q 522 439 468 505 q 577 250 577 373 q 514 58 577 128 q 366 -11 452 -11 q 205 44 279 -11 l 205 -113 q 215 -171 205 -159 q 264 -190 224 -184 l 266 -232 q 149 -224 214 -224 q 43 -232 84 -224 l 45 -190 q 95 -174 85 -184 q 105 -126 105 -163 l 105 395 q 101 438 105 422 q 58 445 84 445 l 13 445 l 13 490 z "},"q":{"ha":634,"x_min":54,"x_max":618,"o":"m 428 449 l 428 490 q 526 499 462 499 q 618 490 590 499 l 618 445 l 571 445 q 530 438 546 445 q 527 395 527 418 l 527 -126 q 536 -174 527 -164 q 585 -190 546 -184 l 587 -232 q 482 -224 547 -224 q 364 -232 417 -224 l 368 -190 q 417 -170 408 -184 q 425 -111 425 -156 l 425 44 q 264 -11 351 -11 q 116 57 177 -11 q 54 249 54 126 q 108 439 54 373 q 260 505 163 505 q 428 449 357 505 m 296 48 q 421 101 371 48 l 421 395 q 272 449 351 449 q 188 399 214 449 q 162 248 162 349 q 235 62 162 103 q 296 48 261 48 z "},"r":{"ha":471,"x_min":33,"x_max":458,"o":"m 33 490 q 130 499 67 499 q 220 490 194 499 l 220 376 q 286 463 264 444 q 381 505 333 505 q 458 490 429 505 l 445 359 l 402 359 l 391 428 q 351 431 366 431 q 313 418 337 431 q 269 383 289 405 q 224 269 224 329 l 224 111 q 233 52 224 65 q 281 34 242 40 l 285 -6 q 169 0 217 0 q 61 -6 120 0 l 64 34 q 114 50 106 40 q 122 98 122 60 l 122 405 q 119 438 122 421 q 86 445 102 445 l 33 445 l 33 490 z "},"s":{"ha":479,"x_min":44,"x_max":437,"o":"m 108 466 q 135 485 108 466 q 259 505 162 505 q 405 473 357 505 q 398 420 405 456 q 385 356 390 384 l 337 364 q 335 403 336 385 q 333 432 334 421 q 245 449 303 449 q 166 432 187 449 q 145 382 145 414 q 171 331 145 350 q 242 296 197 312 l 291 279 q 428 184 404 241 q 437 133 437 164 q 379 27 437 65 q 238 -11 322 -11 q 77 20 154 -11 q 44 37 55 28 l 67 160 l 116 154 q 125 62 119 105 q 239 41 164 41 q 334 88 313 41 q 342 122 342 101 q 320 161 342 143 q 248 198 299 179 l 207 214 q 101 266 128 244 q 64 310 74 289 q 55 363 55 332 q 108 466 55 428 z "},"t":{"ha":422,"x_min":18,"x_max":402,"o":"m 255 -6 q 115 142 115 -6 l 115 432 l 18 432 l 18 458 q 24 473 18 469 q 41 480 30 478 l 120 490 l 133 577 q 145 621 137 607 l 153 643 l 217 643 l 217 490 l 368 490 l 368 465 q 361 439 368 445 q 336 432 354 432 l 217 432 l 217 152 q 257 54 217 68 q 286 48 269 48 q 325 55 303 48 q 328 86 326 71 q 332 118 330 102 q 336 147 333 133 l 398 152 l 402 23 q 255 -6 343 -6 z "},"u":{"ha":641,"x_min":21,"x_max":621,"o":"m 351 490 q 449 499 385 499 q 536 490 513 499 l 536 128 q 544 48 536 91 l 621 48 l 621 7 q 509 -6 564 -6 q 440 3 454 -6 q 427 38 427 11 l 427 54 l 388 28 q 245 -11 329 -11 q 106 142 106 -11 l 106 394 q 101 439 106 420 q 61 445 84 445 l 21 445 l 21 490 q 120 499 55 499 q 207 490 184 499 l 207 167 q 217 85 207 105 q 294 48 237 48 q 414 88 351 48 q 427 98 427 96 q 435 252 435 145 l 435 394 q 429 439 435 421 q 390 445 412 445 l 351 445 l 351 490 z "},"v":{"ha":625,"x_min":4,"x_max":624,"o":"m 4 490 q 119 499 30 499 q 254 490 208 499 l 262 445 l 237 445 q 198 438 211 445 q 205 418 200 428 q 246 305 210 408 q 337 74 282 201 l 458 397 q 465 418 462 408 q 471 438 468 428 q 434 445 459 445 l 408 445 l 412 490 q 516 499 439 499 q 624 490 592 499 l 624 445 l 597 445 q 554 438 573 445 q 475 264 537 418 q 398 78 412 109 l 360 -4 l 308 -4 q 277 0 283 -4 q 266 10 271 4 l 103 397 l 94 418 q 81 438 88 428 q 38 445 64 445 l 11 445 l 4 490 z "},"w":{"ha":904,"x_min":1,"x_max":904,"o":"m 1 490 q 112 499 26 499 q 247 490 198 499 l 254 445 l 228 445 q 190 438 203 445 l 312 69 l 364 232 q 386 300 376 265 q 416 391 397 334 q 442 476 435 448 l 469 476 q 517 461 510 476 l 646 64 l 740 397 q 743 418 743 408 q 748 438 743 428 q 714 445 737 445 l 687 445 l 693 490 q 796 499 721 499 q 904 490 870 499 l 904 445 l 879 445 q 835 438 853 445 q 801 344 818 391 q 767 252 784 296 q 737 167 751 207 q 711 93 723 126 q 689 35 699 60 q 676 -4 680 10 l 621 -4 q 570 20 581 -4 q 564 40 567 28 l 462 337 q 342 -4 431 244 l 286 -4 q 235 17 242 -4 l 99 397 q 78 438 91 421 q 34 445 60 445 l 9 445 l 1 490 z "},"x":{"ha":588,"x_min":6,"x_max":584,"o":"m 421 438 q 388 445 411 445 l 363 445 l 374 490 q 483 499 405 499 q 584 490 561 499 l 568 445 l 547 445 q 502 438 523 445 l 444 366 q 420 337 432 351 q 395 310 407 323 q 374 284 384 296 q 357 265 364 272 l 468 105 q 510 56 492 69 q 561 38 529 43 l 580 -6 q 527 -1 554 -1 l 455 0 q 347 -6 381 0 l 343 34 q 384 54 384 40 q 354 105 384 64 l 283 207 l 218 115 q 184 55 184 69 q 218 34 184 40 l 203 -6 q 111 0 180 0 l 48 -1 q 23 -4 34 -1 q 6 -6 11 -6 l 21 34 q 86 50 71 40 q 111 74 101 61 q 136 105 120 86 l 251 244 l 140 397 q 102 438 123 420 q 57 445 81 445 l 41 445 l 28 490 q 145 499 51 499 q 283 490 238 499 l 291 445 l 265 445 q 230 438 241 445 q 244 418 235 428 q 259 397 252 408 l 326 305 q 421 438 377 370 z "},"y":{"ha":625,"x_min":4,"x_max":625,"o":"m 235 444 q 196 437 205 444 q 225 359 196 429 q 266 254 254 288 l 336 81 l 461 397 q 467 418 463 408 q 473 438 471 428 q 435 445 462 445 l 408 445 l 415 490 q 518 499 442 499 q 625 490 594 499 l 625 445 l 599 445 q 553 434 558 445 q 548 422 551 431 q 537 400 544 414 q 522 361 530 385 l 323 -94 q 193 -227 272 -207 q 124 -232 166 -232 q 61 -218 82 -232 l 72 -153 q 135 -166 105 -166 q 182 -162 166 -166 q 220 -135 198 -157 q 279 -21 242 -113 l 103 395 q 93 417 98 407 q 81 437 88 428 q 38 444 62 444 l 11 444 l 4 489 q 124 499 34 499 q 254 489 214 499 l 262 444 l 235 444 z "},"z":{"ha":519,"x_min":41,"x_max":465,"o":"m 51 492 l 119 490 q 343 490 119 490 q 428 489 421 490 q 444 482 435 488 q 452 454 452 476 l 452 417 l 140 50 l 332 50 q 395 61 377 50 l 415 133 q 439 134 427 135 q 462 133 451 133 l 465 54 l 465 -6 q 360 0 408 0 l 64 0 q 46 7 51 0 q 41 38 41 14 l 41 67 l 359 441 l 186 441 q 120 429 140 441 l 101 357 q 78 356 89 356 q 55 356 67 356 l 51 448 l 51 492 z "},"{":{"ha":332,"x_min":48,"x_max":285,"o":"m 187 737 q 248 743 211 743 q 285 717 285 743 l 285 709 q 208 692 223 706 q 190 663 193 679 q 187 625 187 648 l 187 431 q 122 316 187 336 q 187 200 187 295 l 187 9 q 196 -44 187 -33 q 285 -77 218 -71 l 285 -85 q 279 -105 285 -99 q 260 -108 271 -106 q 228 -111 249 -111 q 141 -85 171 -111 q 111 9 111 -60 l 111 207 q 48 306 111 285 l 48 333 q 96 371 82 350 q 111 425 111 391 l 111 628 q 187 737 111 721 z "},"|":{"ha":553,"x_min":242,"x_max":312,"o":"m 276 757 q 312 736 303 757 l 312 -118 l 278 -118 q 247 -112 258 -118 q 242 -31 242 -57 l 242 757 l 276 757 z "},"}":{"ha":332,"x_min":48,"x_max":283,"o":"m 48 717 q 86 743 48 743 q 192 716 163 743 q 221 615 221 690 l 221 438 q 233 381 221 400 q 283 347 245 363 l 283 306 q 223 224 227 288 q 221 176 221 203 l 221 9 q 145 -105 221 -89 q 84 -111 120 -111 q 48 -85 48 -111 l 48 -77 q 123 -60 108 -74 q 142 -31 139 -47 q 146 9 146 -16 l 146 170 q 156 258 146 234 q 210 316 171 302 q 146 438 146 334 l 146 614 q 128 689 146 676 q 48 709 111 703 l 48 717 z "},"~":{"ha":571,"x_min":54,"x_max":517,"o":"m 391 255 q 488 306 454 255 q 517 258 513 275 q 437 191 502 207 q 400 187 420 187 q 363 193 381 187 q 266 228 313 204 q 173 252 218 252 q 89 188 128 252 q 54 235 65 213 q 142 312 71 289 q 176 319 160 319 q 211 315 193 319 q 307 278 254 302 q 391 255 360 255 z "}," ":{"ha":279,"x_min":0,"x_max":0,"o":""},"¡":{"ha":333,"x_min":69,"x_max":163,"o":"m 141 518 q 143 548 141 534 q 118 552 133 552 q 97 546 103 552 q 91 525 91 541 l 79 305 q 76 249 78 271 q 73 221 73 227 l 73 210 q 114 198 90 198 q 146 205 138 198 q 155 223 155 213 l 155 235 l 141 518 m 137 686 q 133 688 137 686 q 117 690 129 690 q 96 686 105 690 q 81 676 87 682 q 70 645 70 664 q 82 612 70 626 q 111 597 93 597 q 140 602 128 597 q 158 622 153 607 q 163 644 163 636 q 160 660 163 652 q 152 675 158 669 q 137 686 146 682 z "},"¢":{"ha":571,"x_min":78,"x_max":510,"o":"m 286 505 q 210 436 238 486 q 181 302 181 385 q 286 111 181 154 l 286 505 m 339 101 q 475 166 418 101 l 510 147 q 339 43 475 51 l 339 -35 l 317 -35 q 291 -28 295 -35 q 286 1 286 -21 l 286 44 q 133 118 188 54 q 78 288 78 181 q 133 465 78 394 q 286 554 190 534 l 286 641 l 306 641 q 333 632 327 641 q 339 605 339 625 l 339 563 q 350 564 346 564 l 363 564 q 492 540 445 564 q 509 526 503 534 q 507 505 509 514 l 485 420 l 437 431 q 397 486 420 468 q 339 509 374 505 l 339 101 z "},"£":{"ha":577,"x_min":48,"x_max":550,"o":"m 262 -3 l 71 0 q 52 17 57 7 q 48 44 48 27 q 141 94 113 64 q 169 177 169 123 q 162 332 169 258 l 62 332 l 62 356 q 68 378 62 374 q 91 383 74 383 l 154 383 q 140 512 140 468 q 150 582 140 556 q 174 630 159 609 q 211 663 190 651 q 256 684 232 676 q 304 694 279 692 q 350 696 329 696 q 461 686 405 696 q 534 653 517 676 q 537 547 534 601 l 478 537 q 395 631 456 615 q 346 636 374 636 q 266 603 292 636 q 240 522 240 570 q 244 454 241 475 l 252 383 l 411 383 l 411 359 q 405 335 411 339 q 381 332 398 332 l 258 332 q 262 251 262 286 q 204 55 262 147 l 333 55 q 396 57 370 55 q 444 69 422 60 q 512 157 483 88 l 550 142 q 537 6 550 68 q 388 -3 478 -3 l 262 -3 z "},"¤":{"ha":592,"x_min":64,"x_max":530,"o":"m 169 519 q 295 563 227 563 q 425 519 364 563 l 488 581 q 512 555 503 565 q 522 536 522 544 q 520 526 522 527 l 469 475 q 512 346 512 420 q 469 220 512 272 l 530 157 q 486 120 499 126 q 425 176 469 126 q 296 133 366 133 q 170 176 224 133 l 108 113 q 69 156 77 142 q 88 180 75 169 l 126 220 q 84 347 84 274 q 126 475 84 421 l 64 537 q 86 558 75 547 q 108 574 96 570 q 130 557 122 567 l 169 519 m 146 347 q 146 314 146 347 q 191 237 146 281 q 299 193 235 193 q 406 237 363 193 q 449 347 449 282 q 406 457 449 412 q 298 502 363 502 q 190 457 234 502 q 146 347 146 412 z "},"¥":{"ha":770,"x_min":6,"x_max":765,"o":"m 402 312 q 558 625 547 567 q 512 629 547 629 l 478 629 l 488 679 q 603 685 536 685 q 706 684 670 685 q 765 677 741 683 l 747 629 l 709 629 q 656 625 673 629 q 622 568 635 597 l 614 551 q 510 376 575 478 l 455 283 l 564 283 l 564 265 q 557 241 564 245 q 531 237 550 237 l 432 237 l 432 184 l 564 184 l 564 166 q 557 142 564 147 q 530 137 550 136 l 432 137 l 432 119 q 439 60 432 85 q 488 55 454 55 l 530 55 l 530 -9 q 231 -9 390 9 l 231 55 l 272 55 q 322 60 306 55 q 329 118 329 81 l 329 137 l 203 137 l 203 169 q 249 184 215 184 l 329 184 l 329 232 l 326 237 l 203 237 l 203 268 q 252 283 217 283 l 300 283 l 133 568 q 116 600 122 587 q 102 625 111 614 q 51 629 88 629 l 16 629 l 6 679 q 120 685 51 685 q 230 684 190 685 q 303 677 269 683 l 309 629 l 275 629 q 228 625 240 629 q 247 581 228 612 l 402 312 z "},"¦":{"ha":261,"x_min":99,"x_max":163,"o":"m 126 728 q 163 706 156 728 l 163 347 l 135 347 q 105 357 111 349 q 99 390 99 366 l 99 728 l 126 728 m 126 167 q 163 146 156 167 l 163 -213 l 135 -213 q 105 -204 111 -213 q 99 -170 99 -196 l 99 167 l 126 167 z "},"§":{"ha":503,"x_min":77,"x_max":455,"o":"m 380 198 q 446 82 446 159 q 394 -27 446 11 q 257 -65 342 -65 q 156 -49 214 -65 q 78 -11 98 -33 q 81 88 78 48 l 126 94 q 176 14 145 37 q 272 -9 208 -9 q 357 34 336 -9 q 365 67 364 48 q 354 99 366 85 q 322 125 343 113 q 274 150 302 137 q 215 177 247 163 q 112 247 147 210 q 77 334 77 283 q 95 414 77 385 q 154 462 113 442 q 92 575 92 507 q 142 682 92 643 q 291 720 191 720 q 422 685 391 720 l 405 587 l 361 595 q 332 646 347 635 q 264 665 308 665 q 196 646 220 665 q 173 595 173 628 q 196 541 173 563 q 276 495 220 519 q 420 414 385 448 q 455 326 455 380 q 380 198 455 235 m 319 230 q 377 308 377 259 q 274 401 377 351 q 210 431 244 415 q 154 353 154 402 q 210 281 154 308 q 319 230 265 254 z "},"¨":{"ha":415,"x_min":72,"x_max":346,"o":"m 258 628 q 237 670 237 648 q 254 709 237 693 q 292 724 271 724 q 324 713 312 724 q 341 692 336 702 q 346 670 346 682 q 329 632 346 648 q 292 616 312 616 q 258 628 271 616 m 94 628 q 72 670 72 648 q 89 709 72 693 q 128 724 106 724 q 159 713 147 724 q 176 692 171 702 q 181 670 181 682 q 164 632 181 648 q 128 616 147 616 q 94 628 106 616 z "},"©":{"ha":840,"x_min":54,"x_max":788,"o":"m 306 366 q 439 180 306 180 q 553 213 502 179 l 558 164 q 422 133 509 133 q 279 187 334 133 q 224 337 224 241 q 281 490 224 434 q 427 547 337 547 q 557 507 516 547 l 550 432 l 524 432 q 422 505 489 503 q 339 463 371 505 q 306 366 306 422 m 54 343 q 162 601 54 493 q 421 709 269 709 q 680 601 573 709 q 775 439 748 533 q 788 343 788 394 q 739 159 788 244 q 607 24 690 74 q 421 -26 523 -26 q 162 83 271 -26 q 54 343 54 191 m 108 343 q 198 120 108 211 q 298 53 241 78 q 421 28 356 28 q 544 53 486 28 q 643 120 601 78 q 711 220 686 163 q 736 343 736 278 q 644 564 736 472 q 421 656 553 656 q 199 565 291 656 q 108 343 108 473 z "},"ª":{"ha":376,"x_min":34,"x_max":360,"o":"m 34 468 q 197 565 34 565 l 241 565 l 241 592 q 208 668 241 656 q 184 672 198 672 q 88 611 132 672 q 44 638 50 632 q 79 683 44 662 q 163 704 113 704 q 277 674 245 704 q 309 590 309 643 l 309 451 q 312 422 309 435 q 360 418 325 418 l 360 391 q 287 383 326 383 q 242 401 248 384 l 241 425 q 136 378 191 378 q 41 429 64 378 q 34 468 34 446 m 193 530 q 103 471 102 530 q 118 437 103 449 q 162 425 133 425 q 235 454 190 425 q 241 530 241 493 l 193 530 z "},"«":{"ha":486,"x_min":64,"x_max":425,"o":"m 418 81 q 377 57 388 57 q 359 64 366 58 l 230 252 q 247 291 231 265 l 351 441 q 361 451 357 448 q 368 459 366 455 l 371 459 q 383 457 378 459 q 400 451 388 455 l 425 439 l 315 259 l 418 81 m 266 65 q 226 43 237 43 q 207 48 215 43 l 64 252 q 81 291 68 272 l 200 456 q 208 468 205 463 l 217 476 q 247 465 231 476 l 272 455 l 149 259 l 266 65 z "},"¬":{"ha":595,"x_min":64,"x_max":534,"o":"m 502 120 q 465 143 472 120 l 465 326 l 64 326 l 64 357 q 72 388 64 383 q 108 394 82 394 l 534 394 l 534 120 l 502 120 z "},"­":{"ha":425,"x_min":81,"x_max":346,"o":"m 346 255 q 323 224 346 230 l 81 224 l 81 266 q 89 291 81 285 q 119 296 99 296 l 346 296 l 346 255 z "},"®":{"ha":840,"x_min":54,"x_max":788,"o":"m 54 343 q 162 601 54 493 q 421 709 269 709 q 680 601 573 709 q 775 439 748 533 q 788 343 788 394 q 739 159 788 244 q 607 24 690 74 q 421 -26 523 -26 q 162 83 271 -26 q 54 343 54 191 m 108 343 q 198 120 108 211 q 298 53 241 78 q 421 28 356 28 q 544 53 486 28 q 643 120 601 78 q 711 220 686 163 q 736 343 736 278 q 644 564 736 472 q 421 656 553 656 q 199 565 291 656 q 108 343 108 473 m 330 139 q 244 133 300 139 l 244 170 l 275 170 q 296 173 289 170 q 300 207 300 184 l 300 465 q 296 496 300 483 q 285 497 291 497 l 238 497 l 238 524 q 264 529 249 526 q 312 534 279 531 q 397 537 344 537 q 536 510 495 537 q 577 422 577 485 q 482 309 578 337 q 563 227 526 295 l 580 193 q 589 176 585 184 q 597 169 592 169 q 635 187 605 170 l 643 164 q 568 130 602 130 q 524 157 534 130 q 438 306 485 251 q 368 308 404 306 l 368 207 q 374 173 368 190 q 402 170 383 170 l 427 170 l 427 133 q 330 139 381 139 m 418 339 q 506 420 506 339 q 455 496 506 485 q 412 500 437 500 q 368 497 388 500 l 368 339 l 418 339 z "},"¯":{"ha":279,"x_min":1,"x_max":279,"o":"m 1 675 l 279 675 l 279 616 l 1 616 l 1 675 z "},"°":{"ha":397,"x_min":47,"x_max":351,"o":"m 91 427 q 69 449 91 427 q 47 534 47 471 q 91 642 47 598 q 198 686 135 686 q 307 641 262 686 q 351 534 351 597 q 306 427 351 471 q 198 383 261 383 q 91 427 136 383 m 99 535 q 99 514 99 535 q 129 464 99 493 q 199 435 159 435 q 269 464 240 435 q 298 534 298 493 q 269 605 298 575 q 198 635 240 635 q 128 606 157 635 q 99 535 99 577 z "},"±":{"ha":595,"x_min":64,"x_max":534,"o":"m 534 356 q 510 319 533 326 l 332 319 l 332 142 l 299 142 q 269 149 275 142 q 264 180 264 156 l 264 319 l 64 319 l 64 351 q 71 381 64 376 q 102 387 78 387 l 264 387 l 264 565 l 296 565 q 326 558 320 565 q 332 527 332 551 l 332 387 l 534 387 l 534 356 m 534 54 q 510 17 533 24 l 64 17 l 64 48 q 71 79 64 72 q 101 85 78 85 l 534 85 l 534 54 z "},"²":{"ha":422,"x_min":67,"x_max":356,"o":"m 94 272 q 67 288 72 272 q 71 312 67 298 q 252 506 224 462 q 281 585 281 550 q 213 660 281 660 q 159 646 179 660 q 118 584 122 619 l 75 619 q 163 692 84 672 q 214 696 186 697 q 308 665 272 696 q 343 582 343 634 q 299 478 343 531 q 132 315 255 424 l 247 315 q 337 371 315 315 l 356 368 q 351 281 354 320 q 296 272 327 272 l 94 272 z "},"³":{"ha":414,"x_min":79,"x_max":357,"o":"m 299 388 q 174 471 299 471 l 163 471 l 163 488 q 166 505 163 497 l 181 505 q 240 520 215 505 q 286 588 285 551 q 265 644 286 625 q 221 663 244 663 q 152 642 180 663 q 120 588 123 621 l 81 621 q 123 676 86 656 q 196 696 159 696 q 303 669 264 696 q 343 592 343 642 q 285 507 343 541 q 240 492 265 496 q 357 385 357 476 q 318 298 357 330 q 209 265 279 265 q 96 300 139 265 q 79 323 84 310 l 88 388 l 120 383 q 147 320 120 339 q 203 300 173 300 q 274 325 249 300 q 299 388 299 350 z "},"´":{"ha":581,"x_min":186,"x_max":395,"o":"m 395 753 q 251 601 330 683 q 186 601 218 601 q 220 658 205 634 q 276 753 261 730 l 395 753 z "},"µ":{"ha":720,"x_min":84,"x_max":682,"o":"m 84 488 q 258 500 145 500 q 268 493 266 500 q 269 478 269 486 l 269 135 q 282 74 269 91 q 312 51 295 57 q 351 44 326 44 q 436 64 395 44 q 488 98 476 85 q 496 252 496 149 l 496 395 q 490 442 496 422 q 451 446 476 448 l 411 446 l 411 488 q 587 500 472 500 q 597 480 597 500 l 597 128 q 607 48 597 74 q 648 47 625 47 l 682 47 l 682 7 q 582 -5 628 -4 q 524 -4 537 -6 q 505 1 512 -3 q 488 38 489 10 l 488 54 q 412 9 434 18 q 269 0 332 -30 l 269 -57 q 275 -111 269 -88 q 316 -122 291 -122 l 316 -162 q 224 -173 283 -173 q 164 -132 164 -173 l 167 -33 l 167 395 q 163 442 167 417 q 123 446 149 448 l 84 446 l 84 488 z "},"¶":{"ha":573,"x_min":38,"x_max":534,"o":"m 228 283 q 38 479 38 283 q 104 616 38 574 q 310 659 170 659 l 378 659 q 534 652 492 659 l 534 604 l 490 604 q 442 598 456 604 q 434 541 434 577 l 434 31 q 442 -27 434 -6 q 490 -31 461 -33 l 533 -31 l 533 -96 q 367 -88 444 -88 l 367 622 l 295 622 l 295 -88 q 129 -96 214 -88 l 129 -31 l 171 -31 q 220 -27 208 -31 q 228 31 228 -6 l 228 283 z "},"·":{"ha":262,"x_min":78,"x_max":187,"o":"m 99 241 q 78 283 78 261 q 95 322 78 306 q 133 337 112 337 q 165 326 153 337 q 182 305 177 315 q 187 283 187 295 q 170 245 187 261 q 133 230 153 230 q 99 241 112 230 z "},"¸":{"ha":329,"x_min":58,"x_max":268,"o":"m 123 -88 l 99 -78 l 140 6 l 187 6 l 160 -45 q 261 -91 240 -48 q 268 -132 268 -106 q 234 -210 268 -183 q 145 -237 200 -237 q 61 -217 89 -237 q 58 -198 58 -208 q 61 -173 58 -187 q 127 -185 99 -184 q 171 -173 154 -186 q 188 -137 188 -160 q 140 -85 188 -94 l 123 -88 z "},"¹":{"ha":334,"x_min":79,"x_max":276,"o":"m 198 693 q 217 683 210 693 l 217 347 q 220 312 217 326 q 249 309 230 309 l 276 309 l 276 269 q 186 276 228 275 q 98 269 143 276 l 98 309 l 130 309 q 152 312 145 309 q 157 346 157 329 l 157 631 q 129 641 145 641 l 112 639 l 85 634 l 79 660 q 198 693 169 693 z "},"º":{"ha":400,"x_min":34,"x_max":367,"o":"m 367 541 q 320 421 367 465 q 201 378 274 378 q 81 422 128 378 q 34 541 34 465 q 81 660 34 616 q 201 704 128 704 q 320 660 274 704 q 367 541 367 618 m 116 541 q 201 415 116 415 q 266 446 245 415 q 286 541 286 476 q 266 637 286 607 q 201 668 245 668 q 137 637 157 668 q 116 541 116 607 z "},"»":{"ha":486,"x_min":64,"x_max":425,"o":"m 135 78 q 118 58 128 68 q 91 67 109 58 l 64 81 l 173 259 l 69 439 l 94 451 q 122 459 113 459 q 130 451 126 455 q 140 441 135 448 l 242 291 q 259 252 257 272 l 135 78 m 288 61 q 269 43 279 50 q 217 65 248 43 l 339 259 l 221 455 l 244 465 q 274 476 258 472 l 282 468 q 291 456 286 463 l 407 291 q 425 252 421 271 l 288 61 z "},"¼":{"ha":813,"x_min":67,"x_max":751,"o":"m 167 -11 l 541 699 l 567 699 q 598 689 592 697 q 574 643 591 673 l 224 -18 l 193 -18 q 167 -11 173 -18 m 67 660 q 177 692 156 692 q 203 683 198 693 l 203 347 q 207 312 203 326 q 237 309 217 309 l 262 309 l 262 269 q 172 276 214 275 q 84 269 130 276 l 84 309 l 116 309 q 139 312 132 309 q 145 346 145 329 l 145 631 q 116 641 132 641 l 99 639 l 71 634 l 67 660 m 730 0 q 643 6 685 6 q 554 0 601 6 l 554 40 q 590 40 554 40 q 609 41 604 40 q 614 78 615 54 l 614 116 l 434 116 q 422 142 422 125 q 450 186 424 149 q 509 269 476 224 q 619 418 599 400 l 643 418 q 665 414 660 418 q 670 397 670 410 l 670 153 l 751 153 l 751 137 q 745 119 751 123 q 728 116 740 116 l 670 116 l 670 78 q 675 41 670 57 q 704 40 686 40 l 730 40 l 730 0 m 614 153 l 614 332 l 614 346 l 482 163 l 478 153 l 614 153 z "},"½":{"ha":852,"x_min":67,"x_max":784,"o":"m 173 -11 q 548 699 176 -3 l 574 699 q 605 689 599 697 q 593 667 599 677 q 581 643 587 656 l 231 -18 l 200 -18 q 173 -11 179 -18 m 67 660 q 177 692 156 692 q 203 683 198 693 l 203 347 q 207 312 203 326 q 237 309 217 309 l 262 309 l 262 269 q 172 276 214 275 q 84 269 130 276 l 84 309 l 116 309 q 139 312 132 309 q 145 346 145 329 l 145 631 q 116 641 132 641 l 99 639 l 71 634 l 67 660 m 522 0 q 495 14 500 0 q 496 26 495 20 q 497 38 497 31 q 685 238 648 186 q 706 286 704 268 q 709 313 709 303 q 641 388 709 387 q 587 374 607 388 q 544 310 550 349 l 503 346 q 590 418 510 401 q 642 424 612 424 q 736 393 702 424 q 770 310 770 361 q 726 205 770 259 q 560 41 683 152 l 675 41 q 765 99 743 41 l 784 95 q 779 9 784 34 q 723 0 755 0 l 522 0 z "},"¾":{"ha":867,"x_min":69,"x_max":821,"o":"m 638 699 q 668 689 663 697 q 642 641 658 666 l 295 -18 l 264 -18 q 237 -11 242 -18 q 249 13 242 0 q 264 40 255 26 l 611 699 l 638 699 m 799 0 q 712 6 754 6 q 624 0 670 6 l 624 40 q 659 40 624 40 q 679 41 673 40 q 683 78 685 54 l 683 116 l 503 116 q 490 142 490 125 q 519 186 492 149 q 578 269 546 224 q 687 418 662 388 l 713 418 q 735 414 730 418 q 740 397 740 410 l 740 153 l 821 153 l 821 137 q 816 120 821 123 q 798 116 811 116 l 740 116 l 740 78 q 744 41 740 57 q 774 40 755 40 l 799 40 l 799 0 m 683 153 l 683 332 l 683 346 l 551 163 l 547 153 l 683 153 m 111 383 q 204 300 111 300 q 265 325 241 300 q 289 388 289 349 q 164 471 289 471 l 153 471 l 153 488 q 156 505 153 497 l 171 505 q 230 520 205 505 q 276 597 275 551 q 231 658 276 643 q 203 663 218 662 q 143 643 170 663 q 111 588 116 622 l 71 621 q 113 676 77 656 q 186 696 149 696 q 293 669 255 696 q 332 592 332 642 q 275 507 332 541 q 230 492 255 496 q 347 385 347 476 q 309 298 347 330 q 201 265 271 265 q 86 300 130 265 q 69 323 74 310 l 71 334 q 74 354 72 342 q 79 388 75 367 l 111 383 z "},"¿":{"ha":466,"x_min":166,"x_max":431,"o":"m 315 601 q 267 631 280 601 q 264 654 264 640 q 277 681 264 669 q 328 690 299 702 q 356 651 356 678 q 343 612 356 624 q 315 601 330 601 m 290 497 q 280 555 290 529 l 305 555 q 346 512 332 539 q 350 489 350 503 q 342 461 350 475 q 296 407 326 436 q 241 311 241 357 q 257 260 241 280 q 302 240 274 240 q 384 294 372 240 l 430 294 q 385 216 430 242 q 310 195 349 195 q 204 227 242 195 q 167 315 167 259 q 229 424 167 371 q 279 472 268 459 q 290 497 290 486 z "},"×":{"ha":582,"x_min":75,"x_max":507,"o":"m 465 531 q 503 488 495 502 q 483 462 499 479 l 336 315 l 507 142 l 488 120 q 458 105 468 101 q 438 123 449 109 l 292 269 l 120 98 q 91 127 99 119 q 81 140 82 135 q 99 167 86 153 l 247 315 l 75 486 q 101 511 92 503 q 119 519 111 519 l 129 519 q 133 517 130 519 l 292 359 l 465 531 z "},"÷":{"ha":595,"x_min":67,"x_max":537,"o":"m 537 269 q 514 232 537 240 l 67 232 l 67 265 q 74 295 67 288 q 103 302 81 302 l 537 302 l 537 269 m 224 51 q 224 66 224 51 q 243 98 224 81 q 289 116 262 116 q 337 95 317 116 q 356 44 356 74 q 337 0 356 16 q 288 -16 317 -16 q 241 3 258 -16 q 224 51 224 21 m 356 444 q 289 370 356 370 q 240 389 257 370 q 224 437 224 408 q 243 484 224 466 q 291 502 262 502 q 338 483 320 502 q 356 444 356 465 z "},"ƒ":{"ha":393,"x_min":-38,"x_max":401,"o":"m 390 614 q 356 616 376 615 q 320 608 336 616 q 291 582 303 599 q 258 485 271 556 l 238 373 l 344 373 l 336 320 l 228 320 l 176 41 q 120 -95 156 -60 q 9 -133 84 -133 q -38 -132 -17 -133 l -31 -77 q 23 -72 1 -77 q 60 -55 45 -68 q 101 58 85 -31 l 150 320 l 54 320 l 62 373 l 160 373 l 190 531 q 300 668 211 645 q 349 675 327 675 q 401 669 381 675 l 390 614 z "},"μ":{"ha":621,"x_min":33,"x_max":590,"o":"m 420 247 l 422 371 q 412 417 422 407 q 366 434 397 434 l 329 434 l 329 478 q 507 486 476 478 l 507 116 q 517 57 507 68 q 539 45 527 47 q 568 43 551 43 l 590 43 l 590 0 l 428 0 l 425 81 l 424 81 q 361 10 398 31 q 274 -11 323 -11 q 198 7 225 -11 l 198 -217 l 113 -217 l 113 376 q 102 422 113 410 q 68 434 91 434 l 33 434 l 33 478 q 198 486 129 478 l 198 180 q 223 77 198 105 q 296 47 247 47 q 383 88 350 47 q 420 208 420 133 l 420 247 z "},"π":{"ha":588,"x_min":31,"x_max":550,"o":"m 322 429 l 468 428 q 500 434 492 428 q 527 461 513 441 l 550 454 q 514 364 541 395 q 448 360 499 360 q 442 230 442 309 q 443 124 442 150 q 448 81 444 98 q 486 45 456 45 q 512 54 500 45 q 536 74 523 60 l 548 54 q 501 4 529 20 q 449 -11 473 -11 q 410 -6 425 -11 q 383 13 395 -1 q 358 106 357 43 q 368 363 359 170 q 210 364 279 364 l 210 346 q 184 99 210 201 q 145 6 164 26 q 86 -11 105 -10 l 81 6 q 171 310 157 95 q 173 366 173 340 q 105 356 126 366 q 45 320 82 346 l 31 343 q 33 346 33 344 q 41 355 34 347 q 61 377 48 363 q 92 402 74 391 q 196 431 135 431 l 322 429 z "},"ॐ":{"ha":1071,"x_min":51,"x_max":1016,"o":"m 845 717 q 1016 439 1016 717 q 963 216 1016 299 q 819 133 910 133 q 729 174 757 133 q 702 310 702 214 l 702 359 q 656 445 702 445 q 557 405 616 445 q 641 198 641 292 q 585 50 641 103 q 437 -3 529 -3 q 179 132 289 -3 q 51 469 68 266 l 91 479 q 206 196 118 303 q 407 88 295 88 q 509 131 468 88 q 551 237 551 174 q 459 445 551 353 q 343 349 412 380 l 296 458 q 448 601 448 503 q 357 675 448 675 q 215 635 289 675 l 169 743 q 310 775 232 775 q 443 717 387 775 q 499 567 499 659 q 483 496 499 527 l 500 479 q 665 563 587 563 q 685 560 672 563 q 845 717 714 717 m 719 547 q 753 463 753 531 l 753 347 q 823 231 753 231 q 925 288 884 231 q 965 430 965 344 q 928 568 965 516 q 833 619 891 619 q 719 547 754 619 m 371 876 l 405 900 q 548 822 468 822 q 686 900 628 822 l 777 825 q 599 730 689 730 q 371 876 466 730 m 563 1005 l 632 934 l 563 867 l 495 940 l 563 1005 z "},"॑":{"ha":0,"x_min":400,"x_max":520,"o":"m 400 1317 l 400 1835 l 520 1835 l 520 1317 l 400 1317 z "},"॒":{"ha":0,"x_min":171,"x_max":744,"o":"m 171 -601 l 744 -601 l 744 -733 l 171 -733 l 171 -601 z "},"।":{"ha":404,"x_min":197,"x_max":316,"o":"m 197 -105 l 197 605 l 316 690 l 316 -20 l 197 -105 z "},"॥":{"ha":709,"x_min":197,"x_max":619,"o":"m 197 -105 l 197 605 l 316 690 l 316 -20 l 197 -105 m 502 -105 l 502 605 l 619 690 l 619 -20 l 502 -105 z "},"ఁ":{"ha":466,"x_min":43,"x_max":434,"o":"m 354 462 q 282 507 326 507 q 217 480 238 507 q 149 292 149 410 q 205 152 149 217 q 327 88 261 88 q 377 96 353 88 l 283 -4 l 283 -1 q 119 75 197 -1 q 43 247 43 153 q 112 437 43 340 q 303 604 181 534 l 371 604 q 434 575 411 604 l 354 462 z "},"ం":{"ha":707,"x_min":43,"x_max":675,"o":"m 115 71 q 43 223 43 146 q 179 489 43 380 l 120 489 l 120 604 l 320 604 q 563 517 452 604 q 675 322 675 431 q 579 106 675 213 q 381 -1 483 -1 l 275 -1 q 115 71 190 -1 m 142 292 q 203 135 142 200 q 364 71 265 71 q 529 121 463 71 q 594 257 594 171 q 507 410 594 342 q 320 480 424 480 l 225 480 q 142 292 142 408 z "},"ః":{"ha":370,"x_min":43,"x_max":337,"o":"m 136 -1 q 71 25 99 -1 q 43 86 43 51 q 103 205 43 150 q 234 261 163 261 q 300 232 272 261 q 329 163 329 203 q 269 50 329 103 q 136 -1 208 -1 m 221 84 q 232 117 232 94 q 207 163 232 140 q 164 188 184 188 q 135 176 143 188 q 123 142 123 164 q 149 95 123 119 q 191 71 170 71 q 221 84 213 71 m 136 351 q 71 381 99 351 q 43 448 43 410 q 103 554 43 505 q 234 604 163 604 q 308 580 276 604 q 337 516 337 551 q 274 404 337 459 q 136 351 207 351 m 190 432 q 241 473 241 432 q 218 517 241 496 q 172 541 197 541 q 136 529 147 541 q 123 495 123 517 q 145 452 123 472 q 190 432 166 432 z "},"అ":{"ha":836,"x_min":43,"x_max":804,"o":"m 147 368 l 142 353 q 238 176 142 259 q 441 88 334 88 q 631 161 548 88 q 714 327 714 234 q 661 456 714 397 q 544 514 608 514 q 514 502 526 514 q 503 473 503 490 q 548 391 503 437 q 632 346 591 346 l 526 213 l 258 213 l 302 312 l 505 312 q 458 366 475 332 q 439 431 439 397 q 496 551 439 495 q 621 604 554 604 q 747 539 689 604 q 804 395 804 472 q 675 126 804 257 q 408 -1 546 -1 q 156 106 271 -1 q 43 344 43 217 q 115 527 43 451 q 293 604 191 604 q 361 573 333 604 q 390 492 390 543 q 334 392 390 441 q 215 343 279 343 q 147 368 183 343 m 184 509 q 203 444 184 473 q 239 414 221 414 q 266 422 257 414 q 275 452 275 429 q 255 502 275 475 q 220 531 238 531 q 193 524 201 531 q 184 509 184 517 z "},"ఆ":{"ha":801,"x_min":43,"x_max":768,"o":"m 717 214 q 621 66 717 133 q 401 -1 526 -1 q 159 99 276 -1 q 43 312 43 200 q 119 516 43 424 q 285 604 197 604 q 359 573 327 604 q 390 495 390 543 q 333 394 390 448 q 215 343 272 343 q 178 350 194 343 q 157 366 162 357 q 242 171 157 254 q 448 88 327 88 l 517 88 q 582 113 556 88 q 611 167 611 136 q 595 240 611 224 q 544 223 565 223 l 258 223 l 310 312 l 503 312 q 445 361 468 332 q 422 422 422 394 q 479 544 422 482 q 595 604 539 604 l 646 604 q 733 568 696 604 q 768 486 768 531 q 668 310 768 393 q 703 271 689 298 q 717 214 717 245 m 602 346 q 645 370 629 350 q 663 418 663 388 q 627 481 663 448 q 559 514 591 514 q 510 500 527 514 q 493 462 493 486 q 524 407 493 438 q 602 347 554 376 l 602 346 m 227 531 q 193 488 193 531 q 207 438 193 465 q 240 414 223 414 q 264 425 257 414 q 275 457 275 434 q 259 506 275 480 q 227 531 242 531 z "},"ఇ":{"ha":947,"x_min":43,"x_max":918,"o":"m 105 343 q 43 427 43 364 q 111 546 43 489 q 264 604 179 604 q 431 526 350 604 q 511 583 461 563 q 619 604 561 604 q 774 533 709 604 q 836 361 836 461 q 811 267 836 317 q 741 171 787 217 l 811 113 q 879 79 845 79 q 918 89 887 79 l 818 -1 q 713 50 775 -1 l 653 102 q 429 -1 556 -1 q 295 43 353 -1 q 240 159 240 91 q 316 291 240 228 q 481 354 393 354 q 621 303 570 354 l 697 225 q 730 310 730 264 q 674 451 730 387 q 551 514 618 514 q 472 482 512 514 q 397 393 429 451 q 190 531 279 531 q 147 522 164 531 q 130 500 130 513 q 159 441 130 469 q 237 395 187 414 l 105 343 m 370 259 q 347 198 347 240 q 389 123 347 157 q 495 88 431 88 q 609 139 558 88 l 516 223 q 423 282 456 282 q 370 259 390 282 z "},"ఈ":{"ha":1344,"x_min":43,"x_max":1312,"o":"m 1094 -1 q 959 45 1022 -1 q 896 145 896 91 q 947 258 896 198 l 778 258 q 656 71 750 145 q 449 -1 561 -1 q 251 67 337 -1 q 164 214 164 135 q 173 258 164 228 l 43 258 l 130 363 l 200 363 q 300 499 248 463 l 234 499 l 234 655 l 753 993 l 753 842 l 353 604 l 432 604 q 669 528 560 604 q 778 363 778 452 l 1060 363 l 1130 405 q 1165 441 1154 421 q 1179 477 1179 458 q 1144 520 1179 496 q 1065 541 1105 541 q 1000 526 1025 541 q 975 490 975 510 q 1003 431 975 454 l 889 394 q 879 431 879 420 q 950 544 879 492 q 1103 595 1020 595 q 1249 559 1185 595 q 1312 473 1312 523 q 1291 433 1312 455 q 1234 394 1270 411 l 1152 346 q 1266 293 1220 333 q 1312 207 1312 254 q 1239 69 1312 139 q 1094 -1 1166 -1 m 1035 258 q 1002 194 1002 237 q 1047 120 1002 152 q 1136 88 1093 88 q 1200 106 1179 88 q 1222 147 1222 123 q 1164 223 1222 187 q 1035 258 1105 258 m 626 129 q 697 258 690 184 l 271 258 q 343 126 279 179 q 485 71 407 71 q 626 129 564 71 m 268 363 l 672 363 q 584 461 643 424 q 449 499 524 499 l 356 499 q 268 344 285 444 l 268 363 z "},"ఉ":{"ha":843,"x_min":43,"x_max":813,"o":"m 388 85 q 224 -1 315 -1 q 100 59 157 -1 q 43 190 43 119 q 149 474 43 344 q 380 604 255 604 l 380 836 l 503 907 l 503 604 l 568 604 q 683 551 652 604 l 585 452 q 558 485 585 472 q 492 499 531 499 l 261 499 q 161 407 198 468 q 123 279 123 347 q 171 158 123 211 q 276 105 220 105 q 448 201 366 105 q 517 123 472 152 q 610 95 561 95 q 691 111 659 95 q 723 147 723 128 q 670 207 723 188 l 775 293 q 811 214 811 266 q 735 69 811 140 q 577 -1 659 -1 q 388 85 472 -1 m 146 310 l 242 414 l 813 414 l 697 309 l 146 309 l 146 310 z "},"ఊ":{"ha":1334,"x_min":43,"x_max":1301,"o":"m 967 560 q 993 500 967 522 l 877 463 q 869 500 869 489 q 940 613 869 561 q 1093 665 1012 665 q 1238 628 1175 665 q 1301 543 1301 591 q 1280 502 1301 523 q 1224 463 1261 480 l 1141 414 q 1256 363 1207 402 q 1301 275 1301 323 q 1229 137 1301 207 q 1084 68 1156 68 q 948 113 1012 68 q 886 214 886 162 q 935 326 886 266 l 137 326 l 234 424 l 1050 424 l 1118 475 q 1155 510 1142 490 q 1169 546 1169 526 q 1134 588 1169 565 q 1054 609 1094 609 q 991 595 1015 609 q 967 560 967 580 m 1026 326 q 992 264 992 308 q 1037 190 992 221 q 1126 156 1083 156 q 1191 173 1169 156 q 1213 214 1213 190 q 1155 291 1213 255 q 1026 326 1097 326 m 388 85 q 224 -1 315 -1 q 100 59 157 -1 q 43 190 43 119 q 103 402 43 302 q 266 561 163 502 l 266 818 l 383 889 l 383 604 l 446 604 l 446 836 l 570 907 l 570 604 q 638 590 608 604 q 683 551 669 575 l 585 452 q 558 485 585 472 q 492 499 531 499 l 261 499 q 161 407 198 468 q 123 279 123 347 q 171 158 123 211 q 276 105 220 105 q 448 201 366 105 q 517 123 472 152 q 610 95 561 95 q 691 111 659 95 q 723 147 723 128 q 670 207 723 188 l 775 293 q 811 214 811 266 q 735 69 811 140 q 577 -1 659 -1 q 388 85 472 -1 z "},"ఋ":{"ha":1899,"x_min":43,"x_max":1866,"o":"m 414 92 q 266 7 334 7 q 133 62 198 7 q 69 166 69 119 q 152 326 69 262 q 75 354 109 326 q 43 422 43 383 q 103 546 43 489 q 234 604 163 604 q 320 568 283 604 q 356 490 356 531 q 244 333 356 415 q 166 215 166 286 q 203 145 166 177 q 286 113 241 113 q 466 200 377 113 q 646 95 560 95 q 743 138 703 95 q 784 241 784 181 q 680 417 784 337 q 454 499 580 499 l 524 604 q 753 510 648 604 q 855 302 855 412 q 991 146 911 204 q 1151 88 1070 88 q 1246 136 1207 88 q 1287 249 1287 183 q 1210 426 1287 353 q 1019 499 1132 499 l 1090 604 q 1280 519 1200 604 q 1358 310 1358 431 q 1495 149 1413 208 q 1660 88 1575 88 q 1755 135 1716 88 q 1794 249 1794 183 q 1717 426 1794 353 q 1528 499 1640 499 l 1599 604 q 1789 519 1709 604 q 1866 313 1866 431 q 1780 97 1866 196 q 1590 -1 1694 -1 q 1437 47 1511 -1 q 1324 174 1366 95 q 1220 47 1285 95 q 1080 -1 1154 -1 q 935 42 1006 -1 q 823 159 865 85 q 719 42 787 85 q 580 -1 652 -1 q 414 92 507 -1 m 249 459 q 228 514 249 488 q 184 541 207 541 q 147 524 162 541 q 132 479 132 507 q 157 424 132 451 q 201 397 179 397 q 249 459 249 397 z "},"ఌ":{"ha":1209,"x_min":43,"x_max":1176,"o":"m 448 510 q 606 604 544 604 q 727 547 668 604 q 784 428 784 488 q 716 266 784 368 q 648 106 648 164 q 702 2 648 48 q 822 -44 757 -44 q 998 24 927 -44 q 1071 188 1071 91 q 914 554 1071 391 l 1016 612 q 1135 443 1094 534 q 1176 262 1176 351 q 1057 -7 1176 106 q 771 -116 937 -116 q 608 -60 676 -116 q 543 77 543 -3 q 615 227 543 135 q 687 373 687 320 q 651 458 687 425 q 560 489 612 489 q 378 402 468 489 q 207 507 285 507 q 147 490 171 507 q 122 441 122 472 q 159 395 122 411 l 69 309 q 43 393 43 327 q 124 531 43 459 q 280 604 205 604 q 448 510 354 604 z "},"ఎ":{"ha":862,"x_min":43,"x_max":829,"o":"m 533 -1 q 441 22 489 -1 q 354 84 394 45 q 298 22 333 45 q 225 -1 262 -1 q 103 50 164 -1 q 43 161 43 103 q 99 275 43 218 q 223 329 157 329 q 356 251 289 329 l 461 149 q 588 88 513 88 q 711 158 663 88 q 758 327 758 228 q 663 644 758 503 q 411 843 568 785 l 534 923 q 748 714 669 863 q 829 380 829 567 q 740 113 829 231 q 533 -1 651 -1 m 310 139 q 173 248 217 248 q 137 234 152 248 q 123 192 123 220 q 164 130 123 164 q 235 95 204 95 q 310 139 296 95 z "},"ఏ":{"ha":862,"x_min":43,"x_max":829,"o":"m 533 -1 q 441 22 489 -1 q 354 84 394 45 q 298 22 333 45 q 225 -1 262 -1 q 103 50 164 -1 q 43 161 43 103 q 99 275 43 218 q 223 329 157 329 q 356 251 289 329 l 461 149 q 588 88 513 88 q 711 158 663 88 q 758 327 758 228 q 663 644 758 503 q 411 843 568 785 l 534 923 q 748 714 669 863 q 829 380 829 567 q 740 113 829 231 q 533 -1 651 -1 m 310 139 q 173 248 217 248 q 137 234 152 248 q 123 192 123 220 q 164 130 123 164 q 235 95 204 95 q 310 139 296 95 m 340 801 q 356 757 340 778 l 249 669 l 249 672 q 241 706 241 696 q 366 952 241 828 q 612 1077 490 1077 q 692 1042 662 1077 l 595 954 q 526 971 565 971 q 404 914 463 971 q 340 801 340 857 z "},"ఐ":{"ha":887,"x_min":43,"x_max":855,"o":"m 761 106 q 553 -1 665 -1 q 354 84 442 -1 q 286 22 333 45 q 185 -1 240 -1 q 86 43 130 -1 q 43 139 43 86 q 113 282 43 214 q 268 346 184 346 q 366 305 325 346 q 407 207 407 264 q 504 120 448 152 q 617 88 560 88 q 716 147 675 88 q 757 291 757 207 q 700 444 757 376 q 577 514 645 514 q 491 483 534 514 q 414 393 448 451 q 299 502 354 463 q 213 541 248 541 q 159 527 179 541 q 139 487 139 512 q 161 441 139 462 q 220 414 183 420 l 105 343 q 51 428 51 361 q 119 551 51 495 q 268 604 187 604 q 357 581 312 604 q 448 519 407 560 q 529 581 476 558 q 653 604 582 604 q 789 523 723 604 q 855 344 855 439 q 761 106 855 217 m 299 108 q 317 162 317 126 q 281 237 317 198 q 198 274 242 274 q 157 251 174 274 q 139 194 139 231 q 176 123 139 157 q 249 88 214 88 q 299 108 283 88 z "},"ఒ":{"ha":843,"x_min":43,"x_max":811,"o":"m 405 92 q 241 -1 315 -1 q 126 55 186 -1 q 69 164 69 115 q 152 326 69 262 q 75 354 109 326 q 43 422 43 383 q 103 546 43 489 q 234 604 163 604 q 320 568 283 604 q 356 490 356 531 q 244 333 356 415 q 166 215 166 286 q 203 145 166 177 q 293 113 241 113 q 475 200 385 113 q 646 95 568 95 q 706 113 682 95 q 731 150 731 130 q 694 205 731 197 l 785 293 q 811 208 811 274 q 729 71 811 143 q 572 -1 648 -1 q 405 92 496 -1 m 249 459 q 228 514 249 488 q 184 541 207 541 q 147 524 162 541 q 132 479 132 507 q 157 424 132 451 q 201 397 179 397 q 249 459 249 397 z "},"ఓ":{"ha":843,"x_min":43,"x_max":811,"o":"m 405 92 q 241 -1 315 -1 q 126 55 186 -1 q 69 164 69 115 q 152 326 69 262 q 75 354 109 326 q 43 424 43 383 q 74 509 43 465 q 163 587 106 554 l 163 809 q 143 843 163 836 l 251 896 q 269 870 269 893 l 269 604 q 330 568 305 604 q 356 490 356 531 q 244 333 356 415 q 166 215 166 286 q 203 145 166 177 q 293 113 241 113 q 475 200 385 113 q 646 95 568 95 q 706 113 682 95 q 731 150 731 130 q 694 205 731 197 l 785 293 q 811 208 811 274 q 729 71 811 143 q 572 -1 648 -1 q 405 92 496 -1 m 249 459 q 228 514 249 488 q 184 541 207 541 q 147 524 162 541 q 132 479 132 507 q 157 424 132 451 q 201 397 179 397 q 249 459 249 397 z "},"ఔ":{"ha":1084,"x_min":43,"x_max":1053,"o":"m 546 92 q 387 -1 449 -1 q 265 55 325 -1 q 207 171 207 115 q 291 326 207 252 q 214 354 249 326 q 183 418 183 383 q 197 483 183 454 q 231 531 208 513 q 156 575 187 539 l 217 675 q 356 604 276 604 q 391 616 377 604 q 405 650 405 628 q 360 697 405 672 q 262 721 315 721 l 43 721 l 113 828 l 924 828 q 1016 789 978 828 q 1053 687 1053 750 q 987 553 1053 625 q 857 480 921 480 q 740 522 794 480 q 689 614 689 564 q 747 721 689 663 l 479 721 q 495 680 495 696 q 435 575 495 626 q 495 482 495 527 q 383 333 495 415 q 306 215 306 285 q 343 145 306 177 q 428 113 380 113 q 614 200 524 113 q 787 95 707 95 q 845 113 822 95 q 870 150 870 130 q 835 205 870 197 l 924 293 q 951 209 951 275 q 869 71 951 143 q 712 -1 788 -1 q 546 92 636 -1 m 376 414 q 388 459 388 431 q 367 514 388 488 q 323 541 346 541 q 286 523 300 541 q 271 479 271 507 q 295 424 271 451 q 341 397 319 397 q 376 414 363 397 m 896 577 q 965 643 965 577 q 935 702 965 675 q 871 730 906 730 q 816 713 836 730 q 796 664 796 696 q 828 604 796 632 q 896 577 860 577 z "},"క":{"ha":599,"x_min":43,"x_max":567,"o":"m 120 200 q 397 88 252 88 q 446 102 425 88 q 465 137 465 118 q 439 177 465 156 q 370 223 414 201 l 207 309 q 133 364 159 332 q 103 431 103 398 q 150 541 103 493 l 150 652 l 567 903 l 567 770 l 298 604 l 310 604 q 424 579 373 604 q 502 509 476 554 l 378 446 q 317 509 353 488 q 255 531 283 531 q 209 520 227 531 q 191 490 191 509 q 259 414 191 454 l 432 320 q 526 257 490 293 q 561 190 561 221 q 490 53 561 108 q 325 -1 420 -1 q 43 103 145 -1 l 120 200 z "},"ఖ":{"ha":828,"x_min":43,"x_max":795,"o":"m 251 507 q 227 488 227 507 q 237 466 227 476 q 265 456 247 456 l 156 387 q 120 458 120 414 q 181 553 120 503 q 299 604 242 604 q 399 531 356 604 q 442 368 442 458 q 407 198 442 278 q 592 95 483 95 q 689 147 646 95 q 731 276 731 196 q 651 444 731 356 q 489 534 573 534 l 570 639 q 732 529 669 622 q 795 316 795 437 q 711 96 795 196 q 526 -1 625 -1 q 354 92 445 -1 q 190 -1 279 -1 q 85 40 130 -1 q 43 148 43 82 q 99 282 43 214 q 225 346 157 346 q 281 322 248 346 q 344 262 313 300 q 325 422 359 337 q 251 507 292 507 m 214 88 q 302 139 279 88 l 261 180 q 167 258 190 258 q 129 241 143 258 q 115 191 115 224 q 146 123 115 157 q 214 88 177 88 m 275 -313 l 275 -41 l 383 30 l 383 -242 l 275 -313 z "},"గ":{"ha":638,"x_min":43,"x_max":605,"o":"m 322 602 q 349 604 332 604 q 519 502 439 604 q 595 275 595 397 q 563 75 605 171 q 428 -92 520 -21 q 505 207 505 30 q 443 411 505 323 q 303 499 381 499 q 177 429 228 488 q 128 293 128 370 q 165 159 128 217 q 264 88 203 102 l 187 -1 q 82 84 122 21 q 43 224 43 147 q 132 492 43 381 q 176 537 153 519 l 176 652 l 592 903 l 592 770 l 322 602 z "},"ఘ":{"ha":1291,"x_min":43,"x_max":1259,"o":"m 217 88 q 280 102 252 88 q 319 139 308 116 l 249 213 q 191 258 220 258 q 143 235 163 258 q 123 179 123 213 q 153 119 123 146 q 217 88 181 88 m 795 215 q 992 88 870 88 q 1115 136 1064 88 q 1169 249 1169 183 q 1094 425 1169 353 q 911 499 1020 499 l 972 604 q 1175 524 1091 604 q 1259 323 1259 441 q 1152 102 1259 205 q 921 -1 1046 -1 q 796 38 855 -1 q 736 103 760 65 q 728 95 733 99 q 519 -1 645 -1 q 354 92 445 -1 q 181 -1 276 -1 q 85 40 130 -1 q 43 147 43 82 q 111 278 43 211 q 251 346 179 346 q 315 321 279 346 q 381 251 350 296 l 451 173 q 523 112 485 133 q 595 88 560 88 q 697 135 655 88 q 740 249 740 183 q 665 414 740 342 q 472 507 590 486 l 578 604 q 748 503 683 580 q 812 334 812 427 q 795 215 812 269 m 300 -26 l 407 45 l 407 -224 l 300 -295 l 300 -26 m 43 414 l 43 539 l 561 876 l 561 743 l 43 414 z "},"ఙ":{"ha":843,"x_min":43,"x_max":811,"o":"m 310 361 l 387 466 l 455 466 l 455 517 l 578 605 l 578 466 l 745 466 l 638 360 l 310 360 l 310 361 m 405 92 q 241 -1 315 -1 q 126 55 186 -1 q 69 164 69 115 q 152 326 69 262 q 75 354 109 326 q 43 422 43 383 q 103 546 43 489 q 234 604 163 604 q 320 568 283 604 q 356 490 356 531 q 244 333 356 415 q 166 215 166 286 q 203 145 166 177 q 293 113 241 113 q 475 200 385 113 q 646 95 568 95 q 706 113 682 95 q 731 150 731 130 q 694 205 731 197 l 785 293 q 811 208 811 274 q 729 71 811 143 q 572 -1 648 -1 q 405 92 496 -1 m 249 459 q 228 514 249 488 q 184 541 207 541 q 147 524 162 541 q 132 479 132 507 q 157 424 132 451 q 201 397 179 397 q 249 459 249 397 z "},"చ":{"ha":1060,"x_min":43,"x_max":1029,"o":"m 765 602 q 942 500 856 591 q 1029 296 1029 408 q 951 91 1029 184 q 777 -1 869 -1 q 672 22 723 -1 q 588 85 622 45 q 407 -1 490 -1 q 286 61 343 -1 q 234 203 234 125 q 282 326 234 281 l 43 326 l 123 432 l 492 432 q 380 354 421 404 q 339 244 339 303 q 376 136 339 184 q 456 88 414 88 q 648 210 544 88 q 829 105 723 105 q 924 147 886 105 q 965 249 965 190 q 870 420 965 342 q 663 499 775 499 l 602 499 l 602 500 l 567 478 l 567 618 l 982 869 l 982 736 l 765 602 z "},"ఛ":{"ha":1060,"x_min":43,"x_max":1029,"o":"m 517 -313 l 517 -41 l 622 30 l 622 -242 l 517 -313 m 765 602 q 942 500 856 591 q 1029 296 1029 408 q 951 91 1029 184 q 777 -1 869 -1 q 672 22 723 -1 q 588 85 622 45 q 407 -1 490 -1 q 286 61 343 -1 q 234 203 234 125 q 282 326 234 281 l 43 326 l 123 432 l 492 432 q 380 354 421 404 q 339 244 339 303 q 376 136 339 184 q 456 88 414 88 q 648 210 544 88 q 829 105 723 105 q 924 147 886 105 q 965 249 965 190 q 870 420 965 342 q 663 499 775 499 l 602 499 l 602 500 l 567 478 l 567 618 l 982 869 l 982 736 l 765 602 z "},"జ":{"ha":843,"x_min":43,"x_max":811,"o":"m 405 92 q 241 -1 315 -1 q 126 55 186 -1 q 69 164 69 115 q 152 326 69 262 q 75 354 109 326 q 43 422 43 383 q 103 546 43 489 q 234 604 163 604 q 320 568 283 604 q 356 482 356 531 q 475 432 402 432 q 504 441 492 432 q 516 468 516 451 q 495 500 516 485 q 438 514 473 514 l 509 604 q 577 580 547 604 q 605 516 605 551 q 548 401 605 462 q 443 343 490 343 q 360 357 395 343 q 303 393 323 368 q 244 333 293 374 q 166 215 166 286 q 203 145 166 177 q 293 113 241 113 q 475 200 385 113 q 646 95 568 95 q 706 113 682 95 q 731 150 731 130 q 694 205 731 197 l 785 293 q 811 208 811 274 q 729 71 811 143 q 572 -1 648 -1 q 405 92 496 -1 m 249 459 q 228 514 249 488 q 184 541 207 541 q 147 524 162 541 q 132 479 132 507 q 157 424 132 451 q 201 397 179 397 q 249 459 249 397 z "},"ఝ":{"ha":1614,"x_min":43,"x_max":1582,"o":"m 215 499 q 142 321 142 431 q 206 141 142 211 q 371 71 271 71 q 512 130 448 71 q 575 268 575 188 q 489 422 575 347 q 303 499 405 499 l 215 499 m 976 -33 l 1081 37 l 1081 -242 l 976 -313 l 976 -33 m 240 564 l 240 666 l 655 917 l 655 784 l 361 602 q 560 520 466 594 q 666 334 666 434 q 645 224 666 276 q 719 140 673 176 q 862 88 785 88 q 991 135 938 88 q 1043 249 1043 183 q 969 426 1043 353 q 785 499 894 499 l 848 604 q 1050 524 965 604 q 1134 327 1134 441 q 1114 221 1134 272 q 1192 130 1141 171 q 1315 88 1243 88 q 1438 136 1387 88 q 1492 249 1492 183 q 1417 426 1492 353 q 1233 499 1342 499 l 1295 604 q 1498 524 1413 604 q 1582 323 1582 441 q 1475 102 1582 205 q 1243 -1 1369 -1 q 1120 38 1178 -1 q 1050 115 1077 69 q 1039 102 1046 109 q 830 -1 942 -1 q 679 43 750 -1 q 591 137 622 81 q 556 99 575 118 q 303 -1 445 -1 q 125 69 207 -1 q 43 225 43 140 q 79 383 43 309 q 181 502 115 456 l 240 564 z "},"ఞ":{"ha":1188,"x_min":43,"x_max":1156,"o":"m 431 526 q 625 604 493 604 q 750 549 689 604 q 835 407 811 495 l 860 432 l 911 432 l 911 492 l 1035 578 l 1035 432 l 1156 432 l 1069 326 l 836 326 q 741 171 825 255 l 811 113 q 879 79 845 79 q 918 89 887 79 l 818 -1 q 713 50 775 -1 l 653 102 q 429 -1 556 -1 q 295 43 353 -1 q 240 159 240 91 q 316 291 240 228 q 481 354 393 354 q 621 303 570 354 l 697 225 q 730 310 730 264 q 674 451 730 387 q 551 514 618 514 q 472 482 512 514 q 397 393 429 451 q 190 531 279 531 q 147 522 164 531 q 130 500 130 513 q 159 441 130 469 q 237 395 187 414 l 105 343 q 43 427 43 364 q 111 546 43 489 q 264 604 179 604 q 431 526 350 604 m 370 259 q 347 198 347 240 q 389 123 347 157 q 495 88 431 88 q 609 139 558 88 l 516 223 q 423 282 456 282 q 370 259 390 282 z "},"ట":{"ha":879,"x_min":43,"x_max":846,"o":"m 191 309 q 149 326 177 309 q 139 283 139 303 q 182 163 139 213 q 279 113 225 113 q 381 137 333 113 q 466 210 425 163 q 541 121 493 154 q 645 88 590 88 q 737 135 700 88 q 774 249 774 183 q 688 420 774 342 q 496 499 602 499 l 595 604 q 770 509 693 604 q 846 293 846 415 q 768 84 846 171 q 577 -1 687 -1 q 489 24 533 -1 q 405 91 441 48 q 333 23 377 48 q 241 -1 289 -1 q 105 81 169 -1 q 43 255 43 163 q 79 427 43 347 q 181 560 115 506 l 181 672 q 152 694 181 694 l 258 767 q 286 731 286 761 l 286 604 q 341 575 317 604 q 364 509 364 547 q 308 376 364 444 q 191 309 248 309 m 257 442 q 238 489 257 468 q 203 514 220 514 q 177 500 186 514 q 166 459 166 486 q 186 411 166 432 q 232 390 205 390 q 257 442 257 390 z "},"ఠ":{"ha":699,"x_min":43,"x_max":666,"o":"m 295 241 q 275 291 275 264 q 295 336 275 317 q 343 354 317 354 q 387 334 368 354 q 407 290 407 316 q 390 241 407 264 q 344 223 370 223 q 295 241 317 223 m 215 499 q 142 321 142 431 q 206 141 142 211 q 371 71 271 71 q 512 130 448 71 q 575 268 575 188 q 489 422 575 347 q 303 499 405 499 l 215 499 m 381 601 q 560 520 475 587 q 666 334 666 434 q 556 99 666 204 q 303 -1 445 -1 q 125 69 207 -1 q 43 225 43 140 q 79 383 43 309 q 181 502 115 456 l 240 564 l 240 652 l 655 903 l 655 770 l 381 601 z "},"డ":{"ha":862,"x_min":43,"x_max":829,"o":"m 397 85 q 237 -1 310 -1 q 103 76 163 -1 q 43 251 43 153 q 114 441 43 349 q 291 587 186 533 l 291 666 l 706 917 l 706 784 l 415 604 l 622 604 q 683 551 652 604 l 575 462 q 564 488 575 479 q 534 499 553 499 l 276 499 q 171 409 210 466 q 132 284 132 351 q 179 162 132 217 q 276 105 223 105 q 456 193 380 105 q 638 88 544 88 q 704 106 676 88 q 731 146 731 123 q 720 183 731 169 q 686 197 707 197 l 794 303 q 829 208 829 274 q 750 71 829 143 q 595 -1 672 -1 q 397 85 471 -1 z "},"ఢ":{"ha":862,"x_min":43,"x_max":829,"o":"m 334 -313 l 334 -41 l 442 30 l 442 -242 l 334 -313 m 397 85 q 237 -1 310 -1 q 103 76 163 -1 q 43 251 43 153 q 114 441 43 349 q 291 587 186 533 l 291 666 l 706 917 l 706 784 l 415 604 l 622 604 q 683 551 652 604 l 575 462 q 564 488 575 479 q 534 499 553 499 l 276 499 q 171 409 210 466 q 132 284 132 351 q 179 162 132 217 q 276 105 223 105 q 456 193 380 105 q 638 88 544 88 q 704 106 676 88 q 731 146 731 123 q 720 183 731 169 q 686 197 707 197 l 794 303 q 829 208 829 274 q 750 71 829 143 q 595 -1 672 -1 q 397 85 471 -1 z "},"ణ":{"ha":887,"x_min":43,"x_max":855,"o":"m 448 519 q 655 604 520 604 q 789 527 723 604 q 855 361 855 451 q 762 119 855 242 q 577 -1 668 -1 q 479 35 520 -1 q 438 120 438 71 q 510 261 438 190 q 655 329 584 329 q 740 278 694 329 q 748 344 748 291 q 700 453 748 398 q 595 507 652 507 q 414 393 483 507 q 207 531 299 531 q 166 522 183 531 q 149 500 149 513 q 198 418 149 455 q 309 381 244 381 q 196 291 235 339 q 157 199 157 242 q 186 125 157 156 q 261 95 215 95 l 171 -4 l 171 -1 q 79 35 120 -1 q 43 129 43 77 q 74 232 43 181 q 162 319 106 282 q 95 367 120 333 q 69 439 69 401 q 132 554 69 503 q 265 604 197 604 q 448 519 402 604 m 563 120 q 613 88 588 88 q 651 100 638 88 q 663 129 663 112 q 632 204 663 170 q 568 240 604 240 q 547 225 556 240 q 536 181 536 211 q 563 120 536 150 z "},"త":{"ha":856,"x_min":43,"x_max":823,"o":"m 693 344 q 643 368 669 368 q 616 353 616 368 q 641 300 616 325 q 691 276 665 276 q 717 292 717 276 q 693 344 717 320 m 214 344 q 164 368 191 368 q 137 353 137 368 q 163 300 137 325 q 213 276 186 276 q 240 292 240 276 q 214 344 240 320 m 744 247 q 564 220 653 145 q 529 296 529 254 q 574 385 529 339 q 666 432 622 432 q 646 479 666 459 q 598 499 626 499 l 393 499 l 377 489 l 377 629 l 794 880 l 794 747 l 563 604 l 632 604 q 706 580 675 604 q 737 516 737 551 q 721 431 737 454 q 795 376 767 414 q 823 292 823 339 q 702 91 823 184 q 433 -1 577 -1 q 166 69 289 -1 q 43 219 43 139 q 103 366 43 299 q 234 432 163 432 q 298 407 269 432 q 322 336 322 380 q 272 249 322 292 q 167 205 223 205 q 278 121 193 154 q 469 88 364 88 q 663 137 574 88 q 751 232 751 186 l 744 247 z "},"థ":{"ha":852,"x_min":43,"x_max":819,"o":"m 354 276 q 334 326 334 299 q 354 371 334 353 q 402 390 377 390 q 448 371 428 390 q 468 325 468 351 q 449 276 468 299 q 404 258 431 258 q 354 276 377 258 m 360 130 q 448 210 404 159 q 629 95 536 95 q 719 140 682 95 q 757 249 757 186 q 649 421 757 342 q 416 499 540 499 q 208 424 292 499 q 123 248 123 353 q 166 147 123 188 q 259 105 207 105 q 360 130 312 105 m 326 -33 l 434 37 l 434 -234 l 326 -303 l 326 -33 m 425 604 l 509 604 q 723 506 624 604 q 819 299 819 408 q 737 94 819 190 q 568 -1 655 -1 q 473 24 520 -1 q 388 91 424 48 q 305 24 351 48 q 215 -1 261 -1 q 96 69 152 -1 q 43 224 43 140 q 140 492 43 381 q 299 594 210 571 l 299 666 l 716 917 l 716 784 l 425 604 z "},"ద":{"ha":852,"x_min":43,"x_max":819,"o":"m 360 130 q 448 210 404 159 q 629 95 536 95 q 719 140 682 95 q 757 249 757 186 q 649 421 757 342 q 416 499 540 499 q 208 424 292 499 q 123 248 123 353 q 166 147 123 188 q 259 105 207 105 q 360 130 312 105 m 425 604 l 509 604 q 723 506 624 604 q 819 299 819 408 q 737 94 819 190 q 568 -1 655 -1 q 473 24 520 -1 q 388 91 424 48 q 305 24 351 48 q 215 -1 261 -1 q 96 69 152 -1 q 43 224 43 140 q 140 492 43 381 q 299 594 210 571 l 299 666 l 716 917 l 716 784 l 425 604 z "},"ధ":{"ha":852,"x_min":43,"x_max":819,"o":"m 360 130 q 448 210 404 159 q 629 95 536 95 q 719 140 682 95 q 757 249 757 186 q 649 421 757 342 q 416 499 540 499 q 208 424 292 499 q 123 248 123 353 q 166 147 123 188 q 259 105 207 105 q 360 130 312 105 m 326 -33 l 434 37 l 434 -234 l 326 -303 l 326 -33 m 425 604 l 509 604 q 723 506 624 604 q 819 299 819 408 q 737 94 819 190 q 568 -1 655 -1 q 473 24 520 -1 q 388 91 424 48 q 305 24 351 48 q 215 -1 261 -1 q 96 69 152 -1 q 43 224 43 140 q 140 492 43 381 q 299 594 210 571 l 299 666 l 716 917 l 716 784 l 425 604 z "},"న":{"ha":855,"x_min":43,"x_max":823,"o":"m 255 499 l 237 488 l 237 628 l 710 907 l 710 774 l 427 604 l 554 604 q 745 520 666 604 q 823 315 823 437 q 740 96 823 193 q 556 -1 659 -1 q 371 92 452 -1 l 285 197 q 193 266 227 266 q 174 254 181 266 q 167 224 167 241 l 167 -1 l 43 -1 q 52 34 52 16 l 52 147 q 129 276 52 204 q 271 346 207 346 q 383 251 315 346 l 476 149 q 597 88 529 88 q 711 142 665 88 q 760 274 760 193 q 678 427 760 354 q 503 499 597 499 l 255 499 z "},"ప":{"ha":846,"x_min":43,"x_max":813,"o":"m 43 414 l 43 539 l 561 876 l 561 743 l 43 414 m 520 -1 q 356 92 446 -1 q 191 -1 278 -1 q 86 40 132 -1 q 44 147 44 82 q 112 278 44 211 q 252 346 180 346 q 316 321 281 346 q 383 251 351 296 l 452 173 q 524 112 486 133 q 597 88 561 88 q 699 135 656 88 q 741 249 741 183 q 666 414 741 342 q 473 507 591 486 l 580 604 q 749 503 685 580 q 813 334 813 427 q 730 94 813 190 q 520 -1 646 -1 m 154 119 q 218 88 183 88 q 281 102 254 88 q 320 139 309 116 l 251 213 q 193 258 221 258 q 145 235 164 258 q 125 179 125 213 q 154 119 125 146 z "},"ఫ":{"ha":846,"x_min":43,"x_max":813,"o":"m 285 -295 l 285 -26 l 391 45 l 391 -224 l 285 -295 m 520 -1 q 356 92 446 -1 q 191 -1 278 -1 q 86 40 132 -1 q 44 147 44 82 q 112 278 44 211 q 252 346 180 346 q 316 321 281 346 q 383 251 351 296 l 452 173 q 524 112 486 133 q 597 88 561 88 q 699 135 656 88 q 741 249 741 183 q 666 414 741 342 q 473 507 591 486 l 580 604 q 749 503 685 580 q 813 334 813 427 q 730 94 813 190 q 520 -1 646 -1 m 154 119 q 218 88 183 88 q 281 102 254 88 q 320 139 309 116 l 251 213 q 193 258 221 258 q 145 235 164 258 q 125 179 125 213 q 154 119 125 146 m 43 414 l 43 539 l 561 876 l 561 743 l 43 414 z "},"బ":{"ha":887,"x_min":43,"x_max":855,"o":"m 414 92 q 266 7 334 7 q 133 62 198 7 q 69 166 69 119 q 152 326 69 262 q 75 354 109 326 q 43 422 43 383 q 103 546 43 489 q 234 604 163 604 q 320 568 283 604 q 356 490 356 531 q 244 333 356 415 q 166 215 166 286 q 203 145 166 177 q 286 113 241 113 q 466 200 377 113 q 646 95 560 95 q 743 138 703 95 q 784 241 784 181 q 680 417 784 337 q 454 499 580 499 l 524 604 q 753 502 648 604 q 855 284 855 397 q 767 85 855 171 q 577 -1 680 -1 q 414 92 507 -1 m 249 459 q 228 514 249 488 q 184 541 207 541 q 147 524 162 541 q 132 479 132 507 q 157 424 132 451 q 201 397 179 397 q 249 459 249 397 z "},"భ":{"ha":971,"x_min":43,"x_max":938,"o":"m 249 459 q 228 514 249 488 q 184 541 207 541 q 147 524 162 541 q 132 479 132 507 q 157 424 132 451 q 201 397 179 397 q 249 459 249 397 m 361 -26 l 468 45 l 468 -224 l 361 -295 l 361 -26 m 466 200 q 646 95 560 95 q 743 147 703 95 q 784 279 784 196 q 724 431 784 363 q 587 499 668 499 l 544 499 l 523 485 l 523 625 l 938 876 l 938 743 l 682 584 q 774 512 728 563 q 855 307 855 418 q 768 96 855 196 q 577 -1 680 -1 q 414 92 507 -1 q 266 7 334 7 q 133 62 198 7 q 69 166 69 119 q 152 326 69 262 q 75 354 109 326 q 43 422 43 383 q 103 546 43 489 q 234 604 163 604 q 320 568 283 604 q 356 490 356 531 q 244 333 356 415 q 166 215 166 286 q 203 145 166 177 q 286 113 241 113 q 466 200 377 113 z "},"మ":{"ha":1293,"x_min":43,"x_max":1260,"o":"m 218 88 q 281 102 254 88 q 319 139 309 116 l 249 213 q 191 258 220 258 q 143 235 163 258 q 123 179 123 213 q 153 119 123 146 q 218 88 183 88 m 354 92 q 181 -1 279 -1 q 85 40 130 -1 q 43 147 43 82 q 111 278 43 211 q 251 346 179 346 q 315 321 279 346 q 383 251 350 296 l 451 173 q 524 112 485 133 q 595 88 560 88 q 698 135 655 88 q 741 249 741 183 q 655 426 741 353 q 449 499 570 499 l 245 499 l 227 488 l 227 628 l 700 907 l 700 774 l 418 604 l 449 604 q 705 526 598 604 q 812 334 812 448 q 796 217 812 271 q 872 129 822 170 q 994 88 923 88 q 1117 136 1066 88 q 1171 249 1171 183 q 1096 425 1171 353 q 913 499 1022 499 l 974 604 q 1176 524 1093 604 q 1260 323 1260 441 q 1154 102 1260 205 q 923 -1 1047 -1 q 798 38 856 -1 q 737 103 761 65 q 730 95 734 99 q 519 -1 645 -1 q 354 92 445 -1 z "},"య":{"ha":1539,"x_min":43,"x_max":1507,"o":"m 234 499 q 142 301 142 397 q 212 138 142 205 q 369 71 282 71 q 516 126 456 71 q 575 259 575 181 q 479 430 575 361 q 234 499 383 499 m 578 523 q 666 353 666 439 q 648 232 666 266 q 740 127 687 166 q 849 88 792 88 q 947 135 906 88 q 989 249 989 183 q 927 426 989 353 q 775 499 865 499 l 726 499 l 709 488 l 709 628 l 1124 879 l 1124 745 l 870 588 q 974 516 927 568 q 1052 302 1052 425 q 1042 217 1052 258 q 1119 129 1069 170 q 1241 88 1169 88 q 1365 135 1312 88 q 1417 249 1417 183 q 1343 426 1417 353 q 1159 499 1268 499 l 1220 604 q 1424 524 1339 604 q 1507 323 1507 441 q 1401 102 1507 205 q 1169 -1 1295 -1 q 1057 31 1104 -1 q 988 98 1010 64 q 979 88 984 94 q 802 -1 906 -1 q 681 30 738 -1 q 587 118 624 62 q 485 30 540 62 q 381 -1 431 -1 l 251 -1 q 108 71 176 -1 q 43 240 43 146 q 112 434 43 334 q 303 604 181 534 l 388 604 q 578 523 490 604 z "},"ర":{"ha":699,"x_min":43,"x_max":666,"o":"m 215 499 q 142 321 142 431 q 206 141 142 211 q 371 71 271 71 q 512 130 448 71 q 575 268 575 188 q 489 422 575 347 q 303 499 405 499 l 215 499 m 400 597 q 560 520 482 581 q 666 334 666 434 q 556 99 666 204 q 303 -1 445 -1 q 125 69 207 -1 q 43 225 43 140 q 79 383 43 309 q 181 502 115 456 l 240 564 l 240 638 l 655 889 l 655 755 l 400 597 z "},"ఱ":{"ha":879,"x_min":43,"x_max":846,"o":"m 602 -1 q 397 85 483 -1 q 249 -1 323 -1 q 108 81 176 -1 q 43 268 43 163 q 117 488 43 373 q 268 604 191 604 q 330 575 303 604 q 356 509 356 547 q 298 378 356 446 q 183 309 235 309 q 140 326 171 309 q 132 283 132 312 q 179 157 132 210 q 300 105 227 105 q 456 201 374 105 q 544 123 493 150 q 647 95 594 95 q 737 142 700 95 q 774 267 774 190 q 702 422 774 344 q 553 499 631 499 q 499 480 520 499 q 476 439 476 465 q 522 364 476 398 q 625 329 567 329 l 534 231 l 248 231 l 310 329 l 461 329 q 427 364 441 340 q 412 412 412 387 q 469 544 412 483 q 595 604 527 604 q 770 520 693 604 q 846 321 846 437 q 770 102 846 205 q 602 -1 694 -1 m 249 445 q 235 488 249 468 q 203 507 221 507 q 177 495 186 507 q 166 459 166 482 q 180 417 166 437 q 213 397 194 397 q 249 445 249 397 z "},"ల":{"ha":819,"x_min":43,"x_max":787,"o":"m 207 343 q 147 377 187 343 q 142 334 142 360 q 233 165 142 242 q 433 88 325 88 q 619 163 541 88 q 696 344 696 238 q 659 460 696 412 q 565 507 622 507 l 638 604 q 744 545 702 601 q 787 412 787 489 q 670 129 787 259 q 411 -1 553 -1 q 156 99 269 -1 q 43 334 43 204 q 113 520 43 434 q 268 604 184 604 q 343 575 310 604 q 373 500 373 547 q 319 397 373 454 q 207 343 262 343 m 193 432 q 227 414 208 414 q 259 448 259 414 q 242 495 259 476 q 211 514 228 514 q 186 502 194 514 q 174 469 174 490 q 193 432 174 448 z "},"ళ":{"ha":772,"x_min":43,"x_max":740,"o":"m 310 248 q 259 181 259 230 q 307 118 259 149 q 396 88 354 88 q 458 106 438 88 q 480 143 480 123 q 397 213 480 181 l 310 248 m 513 604 l 551 604 q 632 575 597 604 q 663 509 663 547 q 635 437 663 472 q 560 378 609 401 l 461 319 q 546 276 510 308 q 578 207 578 242 q 513 64 578 132 q 368 -1 446 -1 q 230 40 289 -1 q 171 139 171 81 q 190 207 171 174 q 238 268 207 242 l 129 309 q 65 339 91 323 q 43 370 43 359 q 77 432 43 397 q 133 466 112 466 q 181 446 176 466 q 166 431 166 446 q 179 420 166 427 q 207 405 186 412 l 388 346 l 509 405 q 558 465 558 432 q 544 488 558 478 q 509 499 530 499 l 344 499 l 325 486 l 325 626 l 740 877 l 740 744 l 513 604 z "},"ఴ":{"ha":879,"x_min":43,"x_max":846,"o":"m 719 400 q 702 421 711 410 q 553 499 631 499 q 499 480 520 499 q 476 439 476 465 q 522 364 476 398 q 719 400 568 329 m 249 445 q 235 488 249 468 q 203 507 221 507 q 177 495 186 507 q 166 459 166 482 q 180 417 166 437 q 213 397 194 397 q 249 445 249 397 m 132 283 q 179 157 132 210 q 300 105 227 105 q 456 201 374 105 q 544 123 493 150 q 647 95 594 95 q 737 142 700 95 q 774 247 774 190 q 755 346 774 305 q 608 298 693 308 q 465 326 523 288 q 412 420 412 357 q 469 544 412 483 q 595 604 527 604 q 770 520 693 604 q 846 321 846 437 q 770 102 846 205 q 604 -1 694 -1 q 397 85 483 -1 q 249 -1 323 -1 q 108 81 176 -1 q 43 268 43 163 q 117 488 43 373 q 268 604 191 604 q 330 575 303 604 q 356 509 356 547 q 298 378 356 446 q 183 309 235 309 q 140 326 171 309 q 132 283 132 312 z "},"వ":{"ha":845,"x_min":43,"x_max":812,"o":"m 218 88 q 281 102 254 88 q 319 139 309 116 l 249 213 q 191 258 220 258 q 143 235 163 258 q 123 179 123 213 q 153 119 123 146 q 218 88 183 88 m 354 92 q 181 -1 279 -1 q 85 40 130 -1 q 43 147 43 82 q 111 278 43 211 q 251 346 179 346 q 315 321 279 346 q 383 251 350 296 l 451 173 q 524 112 485 133 q 595 88 560 88 q 698 135 655 88 q 741 249 741 183 q 655 426 741 353 q 449 499 570 499 l 245 499 l 227 488 l 227 628 l 700 907 l 700 774 l 418 604 l 449 604 q 705 526 598 604 q 812 334 812 448 q 728 94 812 190 q 519 -1 645 -1 q 354 92 445 -1 z "},"శ":{"ha":733,"x_min":43,"x_max":700,"o":"m 381 274 q 347 213 347 261 q 397 130 347 166 q 502 95 442 95 q 554 112 533 95 q 578 145 578 128 q 502 213 578 174 l 381 274 m 336 302 q 293 317 317 317 q 203 271 247 317 q 159 171 159 224 q 211 94 159 118 l 98 7 q 57 38 72 14 q 43 94 43 64 q 162 296 43 193 q 398 397 282 397 q 459 381 431 397 q 512 424 493 402 q 533 461 533 445 q 516 488 533 478 q 475 499 499 499 l 245 499 l 227 488 l 227 628 l 700 907 l 700 774 l 418 604 l 561 604 q 618 581 594 604 q 641 524 641 557 q 616 454 641 490 q 546 394 590 418 l 495 361 l 570 320 q 641 261 616 296 q 666 190 666 225 q 600 60 666 122 q 463 -1 534 -1 q 330 47 393 -1 q 268 154 268 98 q 336 302 268 245 z "},"ష":{"ha":833,"x_min":43,"x_max":801,"o":"m 368 84 q 205 -1 293 -1 q 99 40 145 -1 q 57 148 57 82 q 122 282 57 214 q 265 346 190 346 q 320 323 289 346 q 378 261 350 300 l 456 173 q 529 112 490 133 q 601 88 565 88 q 703 138 660 88 q 745 268 745 188 q 665 423 745 347 q 486 499 584 499 l 547 604 q 723 512 641 604 q 801 310 801 418 l 801 -207 l 694 -295 l 694 48 q 534 -1 625 -1 q 368 84 444 -1 m 231 88 q 325 139 306 88 l 255 205 q 173 258 208 258 q 137 238 154 258 q 120 183 120 218 q 153 119 120 147 q 231 88 184 88 m 43 414 l 43 539 l 561 876 l 561 743 l 43 414 z "},"స":{"ha":869,"x_min":43,"x_max":838,"o":"m 60 147 q 143 273 60 200 q 291 346 227 346 q 442 225 354 346 q 652 88 556 88 q 732 135 697 88 q 767 249 767 183 q 687 421 767 342 q 507 499 605 499 l 595 604 q 761 511 685 604 q 838 310 838 418 q 760 99 838 203 q 595 -1 682 -1 q 473 40 539 -1 q 355 143 408 81 q 276 231 302 205 q 227 258 245 258 q 196 245 210 258 q 183 214 183 232 l 183 103 q 174 -18 183 7 l 43 -72 q 69 69 69 -27 l 60 147 m 44 414 l 44 539 l 563 876 l 563 743 l 44 414 z "},"హ":{"ha":1366,"x_min":43,"x_max":1334,"o":"m 385 84 q 186 -1 310 -1 q 94 35 135 -1 q 57 129 57 77 q 119 278 57 210 q 257 346 183 346 q 323 322 289 346 q 387 261 359 300 l 465 173 q 618 95 534 95 q 715 133 675 95 q 755 224 755 170 q 646 415 755 332 q 401 499 541 499 l 489 604 l 1151 604 q 1280 548 1226 604 q 1334 407 1334 490 q 1251 237 1334 323 q 1091 153 1169 153 q 958 198 1012 153 q 908 304 908 247 q 940 412 908 361 q 1026 499 972 462 l 741 499 q 804 404 781 461 q 826 283 826 347 q 744 85 826 171 q 548 -1 658 -1 q 385 84 461 -1 m 247 105 q 342 147 317 105 l 264 223 q 194 266 220 266 q 149 248 169 266 q 129 198 129 232 q 164 135 129 164 q 247 105 198 105 m 1217 283 q 1254 367 1254 316 q 1213 458 1254 418 q 1122 499 1175 499 q 1030 454 1070 499 q 989 364 989 412 q 1030 283 989 316 q 1125 251 1070 251 q 1217 283 1179 251 m 43 414 l 43 539 l 561 876 l 561 743 l 43 414 z "},"ఽ":{"ha":1040,"x_min":62,"x_max":1042,"o":"m 112 -1 q 62 89 62 30 q 116 205 62 147 q 257 281 173 259 q 391 340 342 302 q 442 420 442 376 q 402 500 442 465 q 307 536 361 536 q 217 505 252 536 q 181 431 181 475 q 191 391 181 411 q 223 356 203 374 l 105 288 q 62 373 62 325 q 130 514 62 449 q 278 580 198 580 l 411 580 q 510 534 469 580 q 551 422 551 486 q 491 329 551 376 q 342 257 431 282 q 207 200 254 231 q 156 142 156 169 q 188 101 156 128 l 1042 101 l 955 -1 l 112 -1 z "},"ా":{"ha":941,"x_min":-320,"x_max":904,"o":"m 537 394 q 616 478 567 451 l -320 478 l -286 580 l 721 580 q 850 527 798 580 q 904 390 904 471 q 829 227 904 309 q 678 146 754 146 q 553 186 602 146 q 505 284 505 227 q 537 394 505 342 m 802 276 q 836 362 836 313 q 795 444 836 411 q 696 478 754 478 q 622 433 662 478 q 582 346 582 388 q 621 272 582 303 q 712 241 660 241 q 802 276 764 241 z "},"ి":{"ha":0,"x_min":-190,"x_max":218,"o":"m 118 731 q -33 652 69 652 q -131 697 -81 652 q -181 787 -181 741 q -137 876 -181 833 q -47 918 -96 918 l 60 918 q 169 858 119 918 q 218 721 218 798 q 148 564 218 643 q 9 485 78 485 q -190 570 -135 485 l -88 638 q -38 595 -74 611 q 40 580 -1 580 q 106 605 81 580 q 132 670 132 631 q 118 731 132 710 m -103 835 q -63 763 -103 799 q 8 727 -23 727 q 52 739 38 727 q 67 768 67 751 q 25 833 67 799 q -46 866 -17 866 q -89 857 -75 866 q -103 835 -103 848 z "},"ీ":{"ha":0,"x_min":-190,"x_max":218,"o":"m 20 991 q -6 964 -6 991 q 18 930 -6 950 q 60 910 43 910 q 169 850 119 910 q 218 714 218 789 q 148 561 218 638 q 7 485 78 485 q -113 506 -64 485 q -190 561 -164 524 l -88 629 q -39 593 -75 607 q 39 580 -3 580 q 106 604 81 580 q 132 665 132 628 q 118 723 132 702 q -33 643 69 643 q -131 688 -81 643 q -181 779 -181 733 q -139 868 -181 826 q -51 910 -96 910 q -74 957 -74 928 q -33 1030 -74 986 q 45 1074 9 1074 q 162 1023 125 1074 l 84 940 q 50 976 68 965 q 20 991 33 991 m 52 733 q 67 760 67 744 q 25 824 67 791 q -46 857 -17 857 q -89 848 -75 857 q -103 826 -103 839 q -63 756 -103 791 q 8 721 -23 721 q 52 733 38 721 z "},"ు":{"ha":411,"x_min":-153,"x_max":371,"o":"m 45 -1 q -70 37 -16 -1 q -153 139 -125 75 l -95 258 q -10 132 -67 179 q 116 85 47 85 q 236 130 186 85 q 286 240 286 176 q 215 408 286 339 q 38 478 143 478 l 98 580 q 292 503 213 580 q 371 310 371 424 q 269 98 371 197 q 45 -1 170 -1 z "},"ూ":{"ha":865,"x_min":-153,"x_max":835,"o":"m 283 478 q 371 290 371 393 q 276 93 371 187 q 62 -1 180 -1 q -61 43 0 -1 q -153 164 -119 89 l -109 266 q -12 134 -79 183 q 125 85 55 85 q 237 128 196 85 q 278 231 278 170 q 214 405 278 333 q 64 478 153 478 l 13 478 l 81 580 l 634 580 q 777 531 716 580 q 835 414 835 482 q 760 233 835 320 q 607 146 685 146 q 478 186 530 146 q 427 282 427 227 q 457 390 427 337 q 540 478 488 444 l 283 478 m 726 279 q 757 351 757 306 q 709 435 757 397 q 608 478 665 478 q 546 444 573 478 q 520 364 520 411 q 558 283 520 316 q 646 249 597 249 q 726 279 696 249 z "},"ృ":{"ha":319,"x_min":-167,"x_max":347,"o":"m 60 -349 q -16 -387 24 -387 q -74 -368 -55 -387 q -31 -424 -74 -398 q 82 -448 13 -448 q 207 -391 152 -448 q 264 -261 264 -339 q 197 -6 264 -128 q 10 204 130 116 l 132 255 q 291 55 235 170 q 344 -184 347 -61 q 247 -415 347 -298 q 54 -531 147 -531 q -105 -472 -40 -531 q -167 -332 -167 -410 q -122 -193 -167 -254 q -22 -133 -72 -133 q 60 -168 28 -133 q 92 -254 92 -203 q 60 -349 92 -306 m -37 -211 q -81 -249 -81 -211 q -55 -291 -81 -269 q -9 -315 -31 -315 q 31 -278 31 -315 q 9 -234 31 -257 q -37 -211 -14 -211 z "},"ౄ":{"ha":656,"x_min":-184,"x_max":636,"o":"m 43 -349 q -33 -387 7 -387 q -91 -368 -72 -387 q -48 -424 -91 -398 q 62 -448 -4 -448 q 179 -384 129 -448 q 230 -225 230 -323 q 172 -26 230 -128 q 11 152 115 77 l 164 245 l 479 245 q 591 200 543 245 q 636 95 636 154 q 592 -16 636 35 q 497 -64 547 -64 q 411 -35 446 -64 q 377 32 377 -6 q 397 103 377 69 q 449 159 417 137 l 159 159 q 286 -9 241 81 q 327 -184 330 -99 q 228 -417 330 -298 q 30 -531 123 -531 q -125 -475 -62 -531 q -184 -338 -184 -415 q -139 -196 -184 -261 q -39 -133 -89 -133 q 43 -168 11 -133 q 75 -254 75 -203 q 43 -349 75 -306 m -54 -211 q -98 -249 -98 -211 q -72 -291 -98 -269 q -26 -315 -48 -315 q 14 -278 14 -315 q -9 -234 14 -257 q -54 -211 -31 -211 m 455 81 q 477 35 455 57 q 522 13 499 13 q 567 61 567 13 q 546 111 567 92 q 502 133 524 133 q 455 81 455 133 z "},"ె":{"ha":0,"x_min":-319,"x_max":255,"o":"m -54 614 q 26 580 -26 580 q 120 602 78 580 q 162 651 162 624 q 143 694 162 677 q 98 710 125 710 l -319 710 l -225 812 l 171 812 q 231 789 207 812 l 255 762 q 163 567 255 656 q -9 478 71 478 q -113 520 -89 478 l -54 614 z "},"ే":{"ha":0,"x_min":-319,"x_max":255,"o":"m 91 884 q 147 812 91 863 l 171 812 q 231 789 207 812 l 255 762 q 163 567 255 656 q -9 478 71 478 q -113 520 -89 478 l -54 614 q 28 580 -26 580 q 121 597 81 580 q 162 640 162 614 q 143 688 162 666 q 98 710 125 710 l -319 710 l -225 812 l 44 812 q 13 870 13 839 q 62 947 13 901 q 145 993 111 993 q 240 934 213 993 l 171 874 q 115 908 143 908 q 96 901 105 908 q 91 884 91 894 z "},"ై":{"ha":852,"x_min":98,"x_max":767,"o":"m 463 614 q 536 580 492 580 q 571 596 557 580 q 585 639 585 612 q 567 688 585 666 q 522 710 548 710 l 105 710 l 198 812 l 595 812 q 655 789 629 812 q 679 728 679 762 q 620 567 679 656 q 512 478 561 478 q 444 489 473 478 q 404 520 414 500 l 463 614 m 359 -118 q 390 -187 390 -150 q 360 -247 390 -224 l 587 -247 q 707 -244 670 -247 q 767 -225 744 -242 l 696 -332 l 205 -332 q 129 -305 162 -332 q 98 -240 98 -278 q 150 -133 98 -179 q 281 -89 207 -89 q 359 -118 326 -89 m 270 -246 q 275 -241 270 -246 q 279 -216 279 -237 q 261 -176 279 -196 q 220 -157 242 -157 q 187 -169 198 -157 q 176 -198 176 -177 q 196 -237 176 -218 q 239 -255 217 -255 q 270 -246 261 -255 z "},"ొ":{"ha":870,"x_min":-197,"x_max":832,"o":"m 550 517 q 499 608 499 558 q 571 724 499 658 l 281 724 q 173 659 241 724 q 41 724 129 724 l -57 724 q -102 708 -84 724 q -120 661 -120 692 q -91 605 -120 631 q -23 580 -62 580 l 20 580 l 20 478 l -57 478 q -156 524 -113 478 q -197 635 -197 571 q -136 763 -197 699 q -16 828 -75 828 l 75 828 q 223 761 170 828 q 356 828 300 828 l 673 828 q 785 787 738 828 q 832 680 832 743 q 776 548 832 618 q 662 478 720 478 q 550 517 604 478 m 737 597 q 754 643 754 612 q 723 697 754 673 q 658 724 692 724 q 608 707 624 724 q 591 661 591 692 q 622 607 591 631 q 687 580 653 580 q 737 597 721 580 z "},"ో":{"ha":897,"x_min":-190,"x_max":859,"o":"m 551 520 q 500 610 500 563 q 573 724 500 658 l 289 724 q 183 659 248 724 q 50 724 136 724 l -47 724 q -94 708 -75 724 q -112 661 -112 692 q -84 607 -112 631 q -16 580 -55 580 l 20 580 l 20 478 l -47 478 q -149 524 -105 478 q -190 635 -190 571 q -129 764 -190 699 q -7 828 -67 828 l 84 828 q 231 761 179 828 q 364 828 309 828 l 588 828 q 533 908 533 870 q 604 1020 533 962 q 750 1074 677 1074 q 859 1009 823 1074 l 748 941 q 684 999 711 999 q 638 983 656 999 q 619 942 619 967 q 692 852 619 894 l 758 811 q 813 753 794 787 q 833 686 833 720 q 779 548 833 618 q 663 478 721 478 q 551 520 605 478 m 738 597 q 755 643 755 612 q 725 699 755 673 q 660 724 694 724 q 611 707 626 724 q 594 661 594 692 q 624 605 594 631 q 689 580 655 580 q 738 597 723 580 z "},"ౌ":{"ha":900,"x_min":-214,"x_max":863,"o":"m -81 648 q 37 580 -31 580 q 82 601 64 580 q 101 660 101 622 q 65 728 101 697 q -21 758 30 758 l -214 758 l -129 862 l 689 862 q 812 806 761 862 q 863 675 863 748 q 802 531 863 602 q 678 461 741 461 q 560 512 615 461 q 505 628 505 567 q 523 705 505 669 q 568 758 541 741 l 188 758 q 198 731 196 748 q 204 694 204 714 q 130 557 204 636 q 3 478 57 478 q -95 497 -51 478 q -163 553 -139 517 l -81 648 m 629 597 q 704 554 668 554 q 758 573 740 554 q 777 619 777 592 q 738 721 777 675 q 655 767 700 767 q 608 744 629 767 q 590 678 590 720 q 629 597 590 636 z "},"్":{"ha":0,"x_min":-173,"x_max":580,"o":"m -11 866 q -79 819 -79 866 q -50 769 -79 794 q 31 736 -20 744 q -71 636 -71 673 q -50 596 -71 612 q 1 580 -28 580 q 102 643 77 580 q 67 523 102 570 q -29 476 27 476 q -129 508 -85 476 q -173 582 -173 540 q -91 694 -173 625 q -138 731 -120 707 q -156 777 -156 754 q -98 897 -156 842 q 21 952 -41 952 q 184 927 82 952 q 365 901 286 901 q 489 914 444 901 q 580 968 534 927 l 441 808 q 357 782 404 782 q 77 840 196 782 q -11 866 24 866 z "},"ౕ":{"ha":217,"x_min":0,"x_max":227,"o":"m 78 867 q 133 796 78 846 l 133 792 l 35 792 q 0 852 0 819 q 49 930 0 884 q 130 976 98 976 q 227 917 200 976 l 160 857 q 102 891 126 891 q 85 884 92 891 q 78 867 78 877 z "},"ౖ":{"ha":0,"x_min":519,"x_max":1261,"o":"m 779 -118 q 811 -187 811 -150 q 781 -247 811 -224 l 1081 -247 q 1202 -244 1165 -247 q 1261 -225 1239 -242 l 1190 -332 l 626 -332 q 550 -305 582 -332 q 519 -240 519 -278 q 571 -133 519 -179 q 702 -89 628 -89 q 779 -118 747 -89 m 691 -246 q 696 -241 691 -246 q 700 -216 700 -237 q 682 -176 700 -196 q 641 -157 663 -157 q 608 -169 619 -157 q 597 -198 597 -177 q 617 -237 597 -218 q 660 -255 638 -255 q 691 -246 682 -255 z "},"ౘ":{"ha":1060,"x_min":43,"x_max":1029,"o":"m 765 602 q 942 500 856 591 q 1029 296 1029 408 q 951 91 1029 184 q 777 -1 869 -1 q 672 22 723 -1 q 588 85 622 45 q 407 -1 490 -1 q 286 61 343 -1 q 234 203 234 125 q 282 326 234 281 l 43 326 l 123 432 l 492 432 q 380 354 421 404 q 339 244 339 303 q 376 136 339 184 q 456 88 414 88 q 648 210 544 88 q 829 105 723 105 q 924 147 886 105 q 965 249 965 190 q 870 420 965 342 q 663 499 775 499 l 602 499 l 602 500 l 567 478 l 567 618 l 982 869 l 982 736 l 765 602 m 68 838 l 164 925 l 509 925 q 502 951 502 944 q 559 1042 502 1001 q 674 1083 616 1083 q 767 1052 731 1083 q 799 975 799 1019 q 747 884 799 931 q 642 836 694 836 l 68 836 l 68 838 m 702 958 q 679 999 702 979 q 633 1019 656 1019 q 601 1006 609 1019 q 590 973 590 993 q 612 935 590 952 q 655 917 634 917 q 702 958 702 917 z "},"ౙ":{"ha":843,"x_min":43,"x_max":811,"o":"m 405 92 q 241 -1 315 -1 q 126 55 186 -1 q 69 164 69 115 q 152 326 69 262 q 75 354 109 326 q 43 422 43 383 q 103 546 43 489 q 234 604 163 604 q 320 568 283 604 q 356 482 356 531 q 475 432 402 432 q 504 441 492 432 q 516 468 516 451 q 495 500 516 485 q 438 514 473 514 l 509 604 q 577 580 547 604 q 605 516 605 551 q 548 401 605 462 q 443 343 490 343 q 360 357 395 343 q 303 393 323 368 q 244 333 293 374 q 166 215 166 286 q 203 145 166 177 q 293 113 241 113 q 475 200 385 113 q 646 95 568 95 q 706 113 682 95 q 731 150 731 130 q 694 205 731 197 l 785 293 q 811 208 811 274 q 729 71 811 143 q 572 -1 648 -1 q 405 92 496 -1 m 249 459 q 228 514 249 488 q 184 541 207 541 q 147 524 162 541 q 132 479 132 507 q 157 424 132 451 q 201 397 179 397 q 249 459 249 397 m 67 724 l 163 812 l 507 812 q 500 838 500 830 q 558 928 500 887 q 672 969 615 969 q 765 938 730 969 q 798 862 798 906 q 745 770 798 818 q 641 723 693 723 l 67 723 l 67 724 m 700 845 q 677 886 700 866 q 631 906 655 906 q 599 893 608 906 q 588 860 588 880 q 610 821 588 839 q 653 804 632 804 q 700 845 700 804 z "},"ౠ":{"ha":2399,"x_min":43,"x_max":2367,"o":"m 414 92 q 266 7 334 7 q 133 62 198 7 q 69 166 69 119 q 152 326 69 262 q 75 354 109 326 q 43 422 43 383 q 103 546 43 489 q 234 604 163 604 q 320 568 283 604 q 356 490 356 531 q 244 333 356 415 q 166 215 166 286 q 203 145 166 177 q 286 113 241 113 q 466 200 377 113 q 646 95 560 95 q 743 138 703 95 q 784 241 784 181 q 680 417 784 337 q 454 499 580 499 l 524 604 q 753 506 648 604 q 855 292 855 408 q 992 143 916 198 q 1134 88 1069 88 q 1238 135 1199 88 q 1277 249 1277 183 q 1200 426 1277 353 q 1010 499 1122 499 l 1081 604 q 1271 519 1192 604 q 1349 310 1349 431 q 1490 148 1410 208 q 1650 88 1569 88 q 1745 133 1706 88 q 1786 241 1786 177 q 1721 423 1786 347 q 1565 499 1657 499 l 1509 499 l 1580 604 l 2157 604 q 2306 554 2242 604 q 2367 431 2367 502 q 2288 243 2367 333 q 2129 153 2209 153 q 1995 193 2049 153 q 1942 293 1942 234 q 1974 407 1942 351 q 2059 499 2005 462 l 1790 499 q 1858 316 1858 437 q 1772 97 1858 196 q 1582 -1 1685 -1 q 1426 43 1501 -1 q 1311 166 1353 89 q 1207 44 1271 89 q 1070 -1 1142 -1 q 927 41 998 -1 q 816 157 857 84 q 716 41 779 84 q 578 -1 648 -1 q 414 92 507 -1 m 249 459 q 228 514 249 488 q 184 541 207 541 q 147 524 162 541 q 132 479 132 507 q 157 424 132 451 q 201 397 179 397 q 249 459 249 397 m 2038 380 q 2078 295 2038 330 q 2170 261 2119 261 q 2253 290 2221 261 q 2286 366 2286 319 q 2236 454 2286 412 q 2141 499 2190 499 q 2066 463 2092 499 q 2038 380 2038 429 z "},"ౡ":{"ha":1665,"x_min":43,"x_max":1633,"o":"m 1001 179 q 855 502 1001 374 l 914 604 l 1441 604 q 1577 548 1519 604 q 1633 407 1633 490 q 1552 237 1633 323 q 1391 153 1468 153 q 1266 196 1314 153 q 1217 303 1217 241 q 1253 420 1217 366 q 1341 499 1288 475 l 1009 499 q 1105 259 1105 388 q 988 0 1105 129 q 753 -125 867 -125 q 604 -67 666 -125 q 543 77 543 -7 q 615 227 543 135 q 687 373 687 320 q 651 458 687 425 q 560 489 612 489 q 378 402 468 489 q 207 507 285 507 q 147 490 171 507 q 122 441 122 472 q 159 395 122 411 l 69 309 q 43 393 43 327 q 124 531 43 459 q 280 604 205 604 q 448 510 354 604 q 606 604 544 604 q 727 547 668 604 q 784 428 784 488 q 716 266 784 368 q 648 106 648 164 q 687 1 648 48 q 768 -44 723 -44 q 933 21 866 -44 q 1001 179 1001 85 m 1516 278 q 1552 365 1552 312 q 1509 458 1552 418 q 1409 499 1468 499 q 1330 451 1370 499 q 1290 358 1290 404 q 1331 277 1290 312 q 1428 242 1373 242 q 1516 278 1482 242 z "},"ౢ":{"ha":0,"x_min":-823,"x_max":-85,"o":"m -534 -68 q -397 -23 -502 -23 q -293 -60 -342 -23 q -245 -145 -245 -98 q -339 -299 -245 -240 q -432 -417 -432 -359 q -401 -480 -432 -455 q -326 -509 -370 -509 q -203 -427 -255 -509 q -152 -232 -152 -346 q -190 -34 -152 -119 l -122 -34 q -85 -240 -85 -112 q -155 -465 -85 -367 q -326 -563 -225 -563 q -448 -519 -397 -563 q -497 -410 -497 -473 q -473 -333 -497 -371 q -405 -268 -448 -295 q -312 -143 -312 -210 q -340 -97 -312 -116 q -410 -78 -368 -78 q -479 -101 -452 -78 q -509 -154 -509 -122 l -509 -193 l -574 -193 l -574 -154 q -599 -100 -574 -122 q -662 -78 -624 -78 q -728 -98 -700 -78 q -755 -156 -755 -119 q -727 -214 -755 -193 l -801 -214 q -823 -149 -823 -179 q -781 -59 -823 -95 q -682 -23 -738 -23 q -534 -68 -570 -23 z "},"ౣ":{"ha":0,"x_min":-1173,"x_max":-85,"o":"m -884 -68 q -748 -23 -852 -23 q -643 -60 -692 -23 q -595 -145 -595 -98 q -689 -299 -595 -240 q -782 -417 -782 -359 q -751 -480 -782 -455 q -676 -509 -720 -509 q -553 -427 -605 -509 q -502 -230 -502 -346 q -558 -34 -502 -159 l -266 -34 q -137 -86 -193 -34 q -85 -218 -85 -142 q -122 -306 -85 -269 q -213 -342 -162 -342 q -297 -312 -264 -342 q -330 -241 -330 -282 q -298 -171 -330 -200 q -226 -142 -265 -142 q -170 -152 -187 -142 q -203 -108 -176 -128 q -266 -89 -230 -89 l -458 -89 q -435 -230 -435 -169 q -505 -465 -435 -367 q -676 -563 -575 -563 q -798 -519 -747 -563 q -848 -410 -848 -473 q -823 -333 -848 -371 q -754 -268 -798 -295 q -662 -143 -662 -210 q -690 -97 -662 -116 q -760 -78 -719 -78 q -829 -101 -802 -78 q -859 -154 -859 -122 l -859 -193 l -924 -193 l -924 -154 q -949 -100 -924 -122 q -1012 -78 -974 -78 q -1078 -98 -1050 -78 q -1105 -156 -1105 -119 q -1077 -214 -1105 -193 l -1151 -214 q -1173 -149 -1173 -179 q -1131 -59 -1173 -95 q -1032 -23 -1088 -23 q -884 -68 -920 -23 m -215 -207 q -251 -218 -237 -207 q -265 -247 -265 -228 q -251 -280 -265 -265 q -215 -295 -237 -295 q -181 -280 -194 -295 q -167 -247 -167 -265 q -181 -218 -167 -228 q -215 -207 -194 -207 z "},"౦":{"ha":843,"x_min":120,"x_max":733,"o":"m 648 102 q 434 -9 560 -9 q 214 89 308 -9 q 120 323 120 186 q 207 597 120 488 q 426 704 298 704 q 643 606 554 704 q 733 361 733 507 q 648 102 733 214 m 602 115 q 653 303 653 179 q 568 532 653 427 q 370 638 482 638 q 259 584 300 638 q 217 439 217 530 q 286 156 217 261 q 465 48 354 48 q 602 115 553 48 z "},"౧":{"ha":843,"x_min":111,"x_max":741,"o":"m 207 441 q 371 91 207 252 l 275 41 q 153 220 194 135 q 111 363 111 302 q 207 602 111 497 q 431 707 305 707 q 651 595 557 707 q 741 327 741 483 q 716 210 741 274 q 646 77 693 146 l 541 -9 l 541 -6 q 653 293 653 146 q 570 539 653 439 q 368 638 486 638 q 252 584 295 638 q 207 441 207 531 z "},"౨":{"ha":843,"x_min":68,"x_max":784,"o":"m 68 0 l 130 78 l 472 78 q 562 79 536 78 q 599 91 588 81 q 685 298 685 143 q 665 441 685 376 q 611 534 643 506 q 502 368 587 435 q 309 305 417 305 q 203 339 248 305 q 160 422 160 374 q 190 499 160 448 l 281 626 q 356 682 308 662 q 463 703 404 703 q 693 609 601 703 q 784 370 784 514 q 750 198 784 278 q 653 68 716 119 q 489 -1 590 -1 l 68 -1 l 68 0 m 502 435 q 582 561 568 485 q 518 616 561 595 q 416 636 475 636 q 303 581 357 636 q 249 461 249 526 q 279 407 249 429 q 350 384 309 384 q 502 435 438 384 z "},"౩":{"ha":843,"x_min":136,"x_max":717,"o":"m 281 278 q 251 204 251 240 q 328 98 251 152 q 473 45 405 45 q 588 91 540 45 q 636 186 636 133 q 547 315 636 255 q 350 374 458 374 q 473 462 442 439 q 516 523 516 497 q 465 597 516 563 q 368 631 414 631 q 299 621 322 631 q 278 593 278 608 q 298 561 278 578 q 357 530 319 544 l 258 452 q 206 491 225 468 q 187 537 187 514 q 254 642 187 588 q 387 696 322 696 l 456 696 q 570 659 517 696 q 621 574 621 618 q 594 520 621 554 l 520 439 q 662 352 607 410 q 717 244 717 295 q 578 31 717 146 q 384 -9 530 -9 q 221 52 306 -9 q 136 179 136 112 q 145 225 136 198 l 281 278 z "},"౪":{"ha":843,"x_min":136,"x_max":717,"o":"m 255 35 q 205 119 205 75 q 279 214 205 143 l 343 272 l 402 316 l 275 388 q 136 529 136 489 q 199 613 136 568 q 367 696 262 658 l 329 641 q 266 602 289 626 q 244 561 244 582 q 274 514 244 540 q 371 442 303 489 l 499 374 q 602 505 602 465 q 564 580 602 544 q 461 642 526 616 l 577 694 q 679 633 641 672 q 717 555 717 594 q 580 402 717 516 l 520 353 l 578 325 q 699 163 699 241 q 632 54 699 111 q 499 -1 564 -1 l 361 -1 q 255 35 305 -1 m 439 302 q 310 152 310 193 q 359 74 310 111 q 460 38 407 38 q 553 74 513 38 q 594 146 594 111 q 439 302 594 210 z "},"౫":{"ha":840,"x_min":54,"x_max":795,"o":"m 479 405 q 431 524 431 490 q 494 656 431 608 q 662 704 557 704 q 757 676 716 704 q 795 603 795 648 q 693 459 795 558 l 615 410 l 663 360 l 700 300 q 757 186 757 211 q 693 52 757 115 q 551 -9 628 -9 q 472 14 509 -9 q 424 77 438 38 l 526 129 q 564 74 539 95 q 612 52 585 52 q 656 78 638 52 q 676 130 676 101 q 615 237 676 160 l 558 312 l 503 364 l 380 312 q 320 98 391 197 q 150 -1 248 -1 q 82 27 112 -1 q 54 105 54 57 q 101 207 54 153 q 223 296 145 262 l 308 333 q 240 530 300 445 q 109 619 180 619 l 188 700 q 315 582 264 673 q 380 367 367 490 l 479 405 m 279 140 q 316 249 316 188 q 310 281 316 261 l 238 248 q 163 203 191 231 q 135 147 135 174 q 152 106 135 120 q 193 92 169 92 q 279 140 241 92 m 703 615 q 687 654 703 638 q 635 670 670 670 q 561 639 599 670 q 522 565 522 608 q 575 459 522 523 l 575 456 q 668 526 634 483 q 703 615 703 568 z "},"౬":{"ha":840,"x_min":54,"x_max":795,"o":"m 285 395 q 132 537 132 485 q 196 655 132 608 q 346 703 259 703 q 495 675 432 703 q 574 601 558 648 l 495 513 q 417 602 469 570 q 317 636 367 636 q 240 619 266 636 q 213 584 213 602 q 315 492 213 551 l 420 439 q 248 312 310 376 q 186 201 186 252 q 226 114 186 150 q 323 78 266 78 l 750 78 q 795 88 770 78 l 736 -1 l 303 -1 q 132 57 213 -1 q 54 186 54 118 q 117 291 54 234 q 285 395 180 349 z "},"౭":{"ha":840,"x_min":139,"x_max":710,"o":"m 631 279 q 710 169 710 234 q 643 50 710 103 q 493 -1 573 -1 l 346 -1 q 200 40 262 -1 q 139 139 139 81 q 195 234 139 176 q 356 361 251 292 q 499 466 448 414 q 551 556 551 517 q 506 626 551 594 q 404 659 461 659 q 303 636 347 659 q 262 580 262 612 q 271 546 262 564 q 299 516 281 531 l 166 472 q 147 536 147 522 q 210 645 147 594 q 347 694 274 694 l 537 694 q 629 659 588 694 q 668 579 668 621 q 607 482 668 537 l 434 351 q 305 247 347 288 q 262 177 262 205 q 317 79 262 120 q 444 38 373 38 q 560 62 514 38 q 605 117 605 86 q 577 174 605 147 q 497 220 548 201 l 631 279 z "},"౮":{"ha":843,"x_min":44,"x_max":812,"o":"m 140 85 q 44 311 44 181 q 115 548 44 441 q 306 697 186 653 l 252 616 q 171 543 203 599 q 140 410 140 486 q 214 149 140 252 q 398 45 288 45 q 526 109 476 45 q 577 280 577 170 q 513 488 577 390 q 344 625 449 587 l 407 696 l 812 696 l 723 616 l 557 616 q 631 500 604 573 q 658 344 658 427 q 571 98 658 205 q 370 -9 483 -9 q 140 85 237 -9 z "},"౯":{"ha":843,"x_min":78,"x_max":778,"o":"m 462 69 q 482 106 482 85 q 421 171 482 128 l 519 225 q 571 153 571 193 q 499 45 571 98 q 353 -9 427 -9 q 213 33 279 -9 q 147 118 147 71 q 248 248 147 166 q 124 345 170 293 q 78 439 78 397 q 150 622 78 546 q 329 696 227 696 l 778 696 l 687 611 q 653 631 673 631 l 235 631 q 174 580 198 612 q 150 510 150 547 q 227 395 150 455 q 428 288 300 333 q 300 220 347 258 q 252 152 252 184 q 307 86 252 120 q 403 52 361 52 q 462 69 445 52 z "},"౸":{"ha":791,"x_min":23,"x_max":748,"o":"m 539 115 q 397 85 479 85 q 132 187 228 85 q 23 469 23 305 q 48 604 23 539 q 119 718 74 669 q 232 797 164 767 q 383 828 300 828 q 642 723 536 828 q 748 461 748 619 q 649 190 748 302 q 622 167 636 176 l 642 157 q 723 77 703 118 q 737 8 737 48 q 694 -79 737 -33 q 563 -179 652 -125 q 404 -262 475 -232 l 343 -289 q 320 -293 333 -293 q 293 -279 306 -293 q 279 -249 279 -265 q 288 -220 279 -232 q 309 -205 296 -208 l 344 -188 q 502 -113 394 -169 q 604 -41 577 -68 q 632 13 632 -14 q 582 91 632 58 q 539 115 560 103 m 116 488 q 141 374 116 424 q 205 293 166 325 q 387 235 279 235 q 484 253 434 235 q 570 304 534 271 q 631 387 607 337 q 656 490 656 437 q 634 591 656 544 q 575 673 612 638 q 488 728 539 709 q 387 748 437 748 q 201 677 285 748 q 116 488 116 607 z "},"౹":{"ha":156,"x_min":23,"x_max":115,"o":"m 23 811 q 77 848 23 848 q 112 821 101 848 l 115 804 l 115 6 q 63 -17 103 -17 q 23 13 23 -17 l 23 811 z "},"౺":{"ha":512,"x_min":23,"x_max":468,"o":"m 23 862 q 71 903 23 903 q 102 895 88 903 q 118 872 116 887 l 119 853 l 119 570 q 240 455 119 455 q 370 483 332 455 l 370 862 q 415 903 370 903 q 466 872 461 903 l 468 853 l 468 24 l 466 9 q 417 -21 461 -21 q 386 -14 401 -21 q 371 2 371 -7 q 370 16 370 11 l 370 385 l 354 380 q 286 364 313 364 q 230 363 259 363 q 162 375 200 363 q 95 411 125 387 q 23 573 23 469 l 23 862 z "},"౻":{"ha":845,"x_min":23,"x_max":801,"o":"m 754 889 q 801 857 795 889 l 801 9 q 754 -21 792 -21 q 723 -14 737 -21 q 708 2 709 -7 q 707 16 707 11 l 707 378 q 667 368 706 378 q 578 357 628 357 q 431 407 497 357 q 414 424 420 415 q 398 411 408 421 q 245 357 336 357 q 44 468 99 357 q 23 564 23 510 l 23 857 q 38 882 24 873 q 71 890 52 890 q 118 857 115 890 l 118 560 q 242 448 118 448 q 366 557 366 448 l 366 857 q 382 881 367 873 q 414 889 397 889 q 461 857 455 889 l 461 560 q 577 448 461 448 q 707 475 653 448 l 707 857 q 723 881 709 873 q 754 889 737 889 z "},"౼":{"ha":1003,"x_min":23,"x_max":961,"o":"m 924 517 l 272 516 q 50 517 55 516 q 23 566 23 529 q 50 612 23 604 q 62 615 60 615 q 921 615 492 615 q 961 561 961 615 q 934 517 961 529 l 924 517 z "},"౽":{"ha":1186,"x_min":23,"x_max":1144,"o":"m 1143 76 q 1143 56 1143 76 q 1123 24 1142 37 q 1097 11 1104 11 q 408 11 753 11 q 55 136 120 11 q 33 230 33 180 q 45 311 33 281 q 92 368 58 342 q 187 418 126 394 q 341 464 248 442 q 485 505 434 486 q 601 602 594 547 q 602 622 602 614 q 568 696 602 668 q 462 724 534 724 q 78 724 269 724 q 52 728 64 724 q 23 778 23 741 q 52 826 23 815 q 163 828 61 828 q 462 828 163 828 q 658 772 588 828 q 727 625 727 717 q 653 467 727 533 q 398 357 578 401 q 201 292 275 332 q 160 236 160 272 q 208 169 160 200 q 351 139 257 139 q 1088 139 720 139 q 1121 127 1098 139 q 1143 76 1144 115 z "},"౾":{"ha":945,"x_min":0,"x_max":889,"o":"m 889 24 l 299 24 q 135 36 180 24 q 72 64 91 48 q 31 153 31 99 q 66 237 31 207 q 179 276 101 268 q 329 305 310 285 q 334 319 334 312 q 308 344 334 340 q 221 349 281 349 q 11 408 44 349 q 0 454 0 429 q 34 527 0 503 q 157 562 68 551 q 276 586 245 573 q 306 619 306 599 q 235 652 306 649 q 193 652 215 652 l 6 652 l 6 721 l 193 721 q 332 703 298 721 q 380 665 367 685 q 393 618 393 645 q 355 539 393 565 q 223 497 317 512 q 88 471 102 486 q 82 459 82 466 q 198 428 82 428 q 368 407 313 428 q 422 324 422 385 q 376 238 422 262 q 190 198 315 208 q 156 193 170 194 q 118 171 118 187 q 298 140 118 140 l 889 140 l 889 24 z "},"౿":{"ha":899,"x_min":0,"x_max":839,"o":"m 839 298 q 705 129 784 190 q 556 44 626 68 q 402 20 485 20 q 115 116 230 20 q 0 373 0 213 q 52 531 0 471 q 196 592 105 592 q 315 512 288 592 q 323 456 323 486 q 283 367 323 397 q 213 337 242 337 q 124 371 156 337 q 92 458 92 404 q 96 496 92 473 q 80 473 88 483 q 64 441 72 463 q 57 366 57 420 q 85 269 57 313 q 405 140 166 140 q 548 156 497 140 q 632 190 598 171 q 784 343 714 235 l 839 298 m 140 469 q 203 397 140 397 q 266 466 266 397 q 255 503 266 486 q 203 536 234 536 q 159 514 177 536 q 140 469 140 492 z "},"‍":{"ha":1053,"x_min":230,"x_max":1064,"o":"m 694 813 l 694 -17 l 588 -17 l 588 813 l 300 561 l 230 648 l 560 944 l 240 1249 l 323 1324 l 645 1018 l 972 1336 l 1049 1259 l 723 937 l 1064 634 l 978 563 l 694 813 z "},"−":{"ha":886,"x_min":108,"x_max":779,"o":"m 779 384 q 748 332 779 342 l 108 332 l 108 378 q 118 421 108 411 q 160 431 128 431 l 779 431 l 779 384 z "},"ﬁ":{"ha":971,"x_min":37,"x_max":950,"o":"m 564 873 q 456 985 533 985 q 364 944 390 985 q 336 794 336 901 l 336 700 l 560 700 q 665 706 621 700 q 799 713 736 713 q 833 700 821 713 l 833 183 q 845 68 833 125 l 942 68 l 950 7 q 770 -9 884 -9 q 685 50 685 -9 l 689 190 l 689 564 q 685 618 689 601 l 336 618 l 336 162 q 337 112 336 132 q 349 79 339 92 q 445 48 368 57 l 451 -9 q 264 0 340 0 q 91 -9 187 0 l 91 48 q 174 69 162 57 q 188 97 187 82 q 190 136 190 112 l 190 618 l 37 618 l 37 669 q 111 700 55 700 l 190 700 l 190 762 q 269 992 190 914 q 480 1060 342 1060 q 631 1026 567 1060 l 631 873 l 564 873 m 761 1049 q 740 1049 761 1049 q 693 1023 719 1049 q 668 966 668 998 q 674 917 668 934 q 693 887 680 900 q 760 860 720 860 q 846 917 822 860 q 853 955 853 934 q 846 993 853 975 q 828 1023 839 1010 q 761 1049 804 1049 z "},"ﬂ":{"ha":962,"x_min":37,"x_max":947,"o":"m 677 50 l 682 190 l 682 908 q 676 974 682 942 q 456 985 582 985 q 364 944 390 985 q 336 794 336 901 l 336 700 l 529 700 l 529 665 q 496 618 529 626 l 336 618 l 336 162 q 337 112 336 132 q 349 79 339 92 q 445 48 368 57 l 451 -9 q 263 0 340 0 q 92 -9 186 0 l 92 48 q 174 69 162 57 q 188 97 187 82 q 190 136 190 112 l 190 618 l 37 618 l 37 669 q 111 700 55 700 l 190 700 l 190 762 q 269 992 190 914 q 480 1060 342 1060 q 825 1026 750 1060 l 825 183 q 836 68 825 125 l 947 68 l 947 7 q 762 -9 879 -9 q 677 50 677 -9 z "}}}
